<svg width="110" height="111" viewBox="0 0 110 111" fill="none" xmlns="http://www.w3.org/2000/svg">
<rect width="110" height="110.723" rx="55" fill="white"/>
<path d="M29.488 20.2473C28.7159 20.587 28.1137 21.1892 27.6968 22.0849L27.3262 22.8569V43.1935V63.5455H26.9092C26.2916 63.5455 24.9173 64.2249 24.6393 64.6573C24.4695 64.9198 24.1452 65.0742 23.4966 65.2132C22.2613 65.4602 21.0106 66.2478 20.5782 67.0198C19.9142 68.2243 19.8679 69.367 20.2076 74.9568C20.3929 77.7672 20.64 80.5775 20.7635 81.1798C21.1804 83.3416 21.9834 85.1637 23.1724 86.5843L23.7746 87.3101V88.8233C23.7746 90.4293 23.8827 90.7227 24.4695 90.7227C25.0717 90.7227 25.1643 90.4447 25.1643 88.5454V86.7387L24.454 85.9049C24.068 85.4571 23.4812 84.5306 23.1415 83.8512C22.1378 81.8129 21.9679 80.8092 21.5973 75.0186C21.1804 68.3324 21.2731 67.6684 22.7709 66.9426C23.1415 66.7573 23.7128 66.5875 24.0371 66.5411C25.1643 66.3867 25.2879 66.325 25.6276 65.8C26.0291 65.136 26.7394 64.8735 28.0982 64.9043C29.0093 64.9198 29.1483 64.8735 29.5652 64.472C30.4608 63.6073 31.6498 63.3447 32.916 63.7308C33.9815 64.0551 33.9506 64.194 34.1359 57.585C34.2285 54.157 34.3675 51.5474 34.4602 51.3003C34.6455 50.8371 35.294 50.4201 35.819 50.4201C36.0043 50.4201 36.3595 50.6209 36.6065 50.868L37.0543 51.3158V61.1366V70.942L38.0735 72.1156C39.0926 73.2737 39.5868 73.5362 39.9419 73.0729C40.0346 72.9803 40.1427 72.3009 40.2044 71.5751C40.4206 68.8111 41.1927 66.186 42.042 65.2749C42.8449 64.4102 43.9104 64.2867 44.0957 65.0433C44.1575 65.2595 44.1111 65.9235 44.0185 66.5257C43.9104 67.1434 43.5553 69.3052 43.231 71.3435C42.4435 76.2076 41.9802 77.7826 40.5133 80.7165C39.7257 82.2761 38.9537 83.496 37.7955 84.9475L37.0543 85.9049V88.1285C37.0543 90.4601 37.1316 90.7227 37.7492 90.7227C38.3669 90.7227 38.4441 90.4447 38.4441 88.4064V86.4608L39.3551 85.2718C41.8567 81.9982 43.4935 78.1532 44.2501 73.7678C44.4509 72.5479 44.6207 71.4825 44.6207 71.4052C44.6207 71.328 45.5935 71.2663 46.8597 71.2663H49.0833L49.1297 79.1724L49.176 87.0939L49.7319 88.0976C50.087 88.7616 50.5348 89.302 51.0444 89.6881C52.4805 90.7844 51.5077 90.7381 69.8831 90.6918L86.3902 90.6454L87.1623 90.2285C88.2123 89.6881 89.0461 88.8079 89.5403 87.7888L89.9417 86.9395L89.9881 62.5109C90.0189 40.3831 90.0035 38.0669 89.7719 37.8507C89.5711 37.6345 88.9072 37.6036 84.707 37.6036H79.8738L79.7812 35.1639C79.6885 32.5542 79.4878 31.4888 78.762 29.9601C76.2451 24.6018 69.4353 22.5481 64.2624 25.5901C63.7837 25.868 62.8881 26.5938 62.2859 27.196C61.4212 28.0453 61.0351 28.5858 60.4638 29.7439C59.5682 31.5505 59.2902 32.9557 59.2902 35.6117V37.6036H56.974H54.6577V30.2226V22.8569L54.2871 22.0849C54.0864 21.6525 53.7313 21.1275 53.4842 20.8959C52.4959 19.9694 52.8974 20.0002 40.9611 20.0002C31.5417 20.0157 29.9512 20.0466 29.488 20.2473ZM52.3569 21.8069C53.0981 22.44 53.268 23.0114 53.268 24.8643V26.4857H40.992H28.7159V24.8643C28.7159 23.0114 28.8858 22.44 29.627 21.8069L30.1365 21.39H40.992H51.8474L52.3569 21.8069ZM72.3229 26.007C75.0715 26.9798 77.1716 29.188 78.0517 32.0447C78.2525 32.6623 78.3451 33.7278 78.4223 35.9051L78.515 38.9162L83.5798 38.9625L88.6292 38.9934L88.5983 62.8197L88.552 86.6306L88.2123 87.2483C88.027 87.588 87.6564 88.0821 87.363 88.3601C86.2975 89.3947 87.3784 89.3329 69.5125 89.3329H53.3298L52.5422 88.9469C51.693 88.5145 51.0135 87.7579 50.7047 86.8777C50.5503 86.4608 50.504 84.5151 50.4885 78.8172V71.2972L51.3069 71.2354C51.7702 71.2045 52.4033 71.0346 52.743 70.8493C53.4687 70.4788 54.2717 69.475 54.5033 68.6721C54.596 68.3015 54.6577 63.0977 54.6577 53.5393V38.9934H57.499C59.5836 38.9934 60.3711 38.9471 60.4947 38.7926C60.5873 38.6845 60.68 37.3257 60.7108 35.6734C60.8035 32.1991 61.0042 31.3344 62.2396 29.4968C63.4594 27.6747 65.3742 26.3158 67.4434 25.7908C68.7096 25.4666 71.1493 25.5747 72.3229 26.007ZM53.268 45.6333V63.3911H50.2106C47.0605 63.3911 46.7825 63.4374 46.7825 64.0242C46.7825 64.1786 46.8906 64.4102 47.0296 64.5337C47.2303 64.7345 47.7399 64.7808 50.2723 64.7808H53.268V66.4022C53.268 68.286 52.9901 69.0581 52.1408 69.5677C51.693 69.8456 51.3532 69.8765 48.2958 69.8765C45.1457 69.8765 44.9296 69.8611 44.9296 69.5986C44.9296 69.4442 45.0685 68.564 45.2384 67.6375C45.748 64.8735 45.609 63.9778 44.5898 63.4528C43.9567 63.1286 42.6751 63.1131 42.042 63.4374C41.3008 63.8234 40.3588 64.997 39.9265 66.0933C39.5404 67.0507 38.9073 69.7993 38.9073 70.4942C38.9073 70.7876 38.8765 70.803 38.6757 70.6486C38.4904 70.4942 38.4441 69.0736 38.4132 60.6116C38.3669 50.8834 38.3669 50.7444 38.0426 50.3121C36.7146 48.5363 34.1668 48.6752 33.2403 50.5746C32.916 51.2231 32.9006 51.5474 32.8079 56.2107C32.7616 58.9285 32.6844 61.3837 32.6381 61.6462C32.5609 62.1403 32.5454 62.1557 31.8197 62.1557C30.9086 62.1557 29.6578 62.5109 29.1174 62.9433L28.7159 63.2521V45.5715V27.8754H40.992H53.268V45.6333Z" fill="#F0831C"/>
<path d="M68.0147 28.0918C66.2234 28.5241 64.4477 29.9911 63.6447 31.6897C63.2278 32.5698 63.2278 32.6316 63.2278 35.7508V38.9163L69.389 38.9626C73.8053 38.9781 75.6119 38.9472 75.7509 38.8237C76.0752 38.5612 76.0597 33.6199 75.72 32.4926C74.7781 29.2499 71.3346 27.2888 68.0147 28.0918ZM71.7052 29.8058C72.7707 30.3154 73.8361 31.4735 74.2531 32.6007C74.5156 33.2956 74.5773 33.8052 74.5773 35.5192V37.6038H69.4662H64.3396L64.4322 35.442C64.494 33.5581 64.5558 33.1875 64.9264 32.4C66.1462 29.6977 69.111 28.5705 71.7052 29.8058Z" fill="#F0831C"/>
<path d="M72.6626 41.9579C72.5391 42.1432 72.3383 42.6682 72.2302 43.1314C72.014 44.1351 72.2148 45.3859 72.7398 46.1116C73.0641 46.5594 73.0641 46.6984 73.0023 49.3853C72.9405 51.9331 72.8942 52.3037 72.5082 53.4309C72.2766 54.1104 71.5662 55.5773 70.9177 56.7046C68.864 60.3179 68.5551 61.4142 68.5551 65.2129V67.7298L68.1845 67.4519C67.6132 67.035 67.15 66.1085 67.0573 65.1974C66.9955 64.518 67.0264 64.3481 67.3044 64.1011C67.5978 63.8231 67.6286 63.6533 67.6286 61.7848C67.6132 59.6693 67.5823 59.5149 66.8566 59.0208C66.5323 58.7892 66.069 58.7583 63.6138 58.7583C61.0505 58.7583 60.7108 58.7892 60.263 59.0671C59.6453 59.4377 59.4446 60.1017 59.4446 61.8929C59.4446 63.2363 59.7226 64.3173 60.0468 64.3173C60.2939 64.3173 60.2476 65.0585 59.9851 65.9695C59.6917 66.9423 59.1358 67.4519 57.4372 68.3475C55.3989 69.3975 55.1827 69.8762 54.9357 73.6594C54.6886 77.2727 54.9357 85.009 55.3217 85.7193C55.6614 86.3833 56.4026 86.97 57.1284 87.1708C57.5299 87.2789 61.73 87.3252 69.8213 87.2943C83.2246 87.248 82.2827 87.3098 83.3482 86.2288C84.3055 85.256 84.3055 85.2251 84.3055 74.1227C84.3055 68.085 84.2438 63.5606 84.1511 62.7885C83.8886 60.812 83.3482 59.3605 81.8503 56.6891C80.0128 53.4464 79.8275 52.7361 79.8275 49.2308C79.8275 46.7139 79.8429 46.5594 80.229 45.7102C80.5841 44.9535 80.6304 44.6756 80.5687 43.7182C80.5224 43.116 80.3834 42.3902 80.229 42.1123L79.9665 41.6181H76.4303C72.9714 41.6181 72.8942 41.6181 72.6626 41.9579ZM79.1326 44.0425C79.1326 44.7991 79.0554 45.0925 78.7775 45.4785C78.4223 45.9572 78.4223 46.0036 78.4686 49.3544L78.5149 52.7361H76.3377H74.1604L74.284 51.9949C74.3457 51.5934 74.4075 50.0801 74.4075 48.6286C74.4229 46.0808 74.4075 45.9881 74.0523 45.494C73.5891 44.8609 73.4347 44.2432 73.5736 43.5329L73.6663 43.0079L76.3995 43.0388L79.1326 43.0851V44.0425ZM79.6885 55.5619C80.0745 56.3494 80.8157 57.8164 81.3408 58.8355C82.9158 61.8775 82.8231 60.9664 82.8695 73.3506C82.9312 85.4259 82.9776 84.8391 81.8503 85.5803C81.3408 85.9355 81.2635 85.9355 76.5693 85.9355C73.9442 85.9355 71.7979 85.9046 71.7979 85.8737C71.7979 85.8583 71.8596 85.6266 71.9523 85.3796C72.1839 84.7156 72.3846 76.6705 72.2611 73.8138C72.1839 72.455 72.0604 71.0343 71.9523 70.6483C71.7207 69.799 71.1802 69.0887 70.4699 68.7027L69.914 68.4093L69.9758 65.2437C70.0375 62.279 70.053 62.001 70.4544 60.8738C70.6861 60.2098 71.3655 58.8046 71.9677 57.7546C72.5545 56.6891 73.2185 55.4538 73.4347 54.9751L73.8207 54.1258L76.3995 54.1413H78.9782L79.6885 55.5619ZM66.208 60.3333C66.3315 60.4569 66.3933 61.0282 66.3933 61.8775V63.2363H63.6138H60.8343V61.9393C60.8343 61.2289 60.8807 60.5341 60.927 60.3951C61.0042 60.1789 61.3902 60.148 63.5212 60.148C65.2661 60.148 66.0845 60.2098 66.208 60.3333ZM65.6212 64.9967C65.6212 65.7842 66.1308 67.2975 66.6095 67.9151C66.8874 68.2703 67.5205 68.7181 68.3698 69.1659C69.8522 69.9225 70.3464 70.324 70.578 70.9263C70.8868 71.7447 71.0258 76.0683 70.8714 80.4537C70.7015 85.1325 70.6706 85.2715 69.775 85.7347C69.2346 86.0127 57.8387 86.0127 57.2828 85.7347C56.4489 85.3332 56.3717 84.87 56.2636 79.7588C56.1556 74.4469 56.3254 71.3741 56.7887 70.5865C56.974 70.2623 57.499 69.8762 58.3637 69.413C59.0894 69.0269 59.8615 68.5946 60.0932 68.4402C60.6799 68.0387 61.4211 66.4945 61.5447 65.3827L61.6528 64.4717H63.6293H65.6212V64.9967Z" fill="#F0831C"/>
</svg>
