<svg width="110" height="110" viewBox="0 0 110 110" fill="none" xmlns="http://www.w3.org/2000/svg">
<rect x="-1.52588e-05" width="110" height="109.901" rx="54.9506" fill="white"/>
<path d="M48.7507 20.4589C41.8004 21.7087 35.1548 25.1534 30.1555 30.1832C23.1137 37.225 19.608 46.3702 20.0348 56.5214C20.2482 61.2159 20.7054 63.6242 22.1687 67.4956C26.223 78.2565 34.8805 85.9994 46.4339 89.1088C49.086 89.8099 49.8786 89.9014 54.9999 89.9014C60.1212 89.9014 60.9138 89.8099 63.5659 89.1088C76.735 85.5422 86.3984 75.6653 89.3249 62.7401C90.087 59.2955 90.2394 52.8938 89.5992 49.2357C86.7337 32.0428 72.1929 19.8492 54.7256 20.0016C52.7746 20.0016 50.092 20.215 48.7507 20.4589ZM60.548 22.5622C64.9987 23.3548 69.4493 25.1229 73.4427 27.7445C75.79 29.2687 80.7589 34.2376 82.2831 36.5849C89.8126 48.1078 89.8126 61.9476 82.2831 73.4705C80.7589 75.8178 75.79 80.7867 73.4427 82.3109C67.6508 86.0909 61.6149 87.9199 54.9999 87.9199C48.3849 87.9199 42.3491 86.0909 36.5571 82.3109C34.2098 80.7867 29.2409 75.8178 27.7167 73.4705C20.1872 61.9476 20.1872 48.1078 27.7167 36.5849C29.2409 34.2376 34.2098 29.2687 36.5571 27.7445C40.4895 25.1839 45.0012 23.3243 49.2994 22.5622C52.2259 22.044 57.6215 22.0135 60.548 22.5622Z" fill="#34373A"/>
<path d="M54.0852 28.4764C53.9023 28.8727 53.7804 32.9576 53.7804 39.6945V50.303L52.6525 50.9127C51.1588 51.7357 50.3662 53.138 50.3662 55.028C50.3662 57.8325 52.1648 59.6006 54.9998 59.6006C57.0117 59.6006 58.414 58.7775 59.1761 57.1619L59.7248 55.973L64.9071 55.8815C69.754 55.7901 70.0893 55.7596 70.1808 55.2109C70.4247 54.022 69.4797 53.8086 64.4803 53.8086H59.7248L59.1151 52.6502C58.7798 52.0101 58.0177 51.248 57.3775 50.9127L56.2191 50.303V39.6945C56.2191 32.9576 56.0972 28.8727 55.9143 28.4764C55.7314 28.1716 55.3351 27.8972 54.9998 27.8972C54.6644 27.8972 54.2682 28.1716 54.0852 28.4764ZM56.7374 53.2599C57.7433 54.2049 57.7128 56.0035 56.6459 56.8265C54.9388 58.1678 52.5611 57.1619 52.5611 55.089C52.5611 52.8636 55.1217 51.7357 56.7374 53.2599Z" fill="#34373A"/>
<path d="M41.0075 31.6759C40.6722 32.0722 40.8246 32.56 41.9221 34.5109C44.1779 38.6568 44.6047 39.236 45.3363 39.114C46.5861 38.9311 46.3422 37.6813 44.4218 34.4195C42.5927 31.3406 41.8001 30.7004 41.0075 31.6759Z" fill="#34373A"/>
<path d="M66.797 32.3774C63.8095 37.1634 63.2303 39.0229 64.7545 39.0229C65.3642 39.0229 65.7605 38.5657 67.1323 36.2794C69.2052 32.7432 69.4491 32.1945 68.9918 31.6763C68.3821 30.9142 67.5286 31.219 66.797 32.3774Z" fill="#34373A"/>
<path d="M31.5271 41.1576C31.3442 41.4015 31.2223 41.8283 31.2833 42.1331C31.4052 42.7733 37.1972 46.1875 38.1727 46.1875C38.9652 46.1875 39.392 45.3949 38.9652 44.7243C38.6299 44.2365 32.8075 40.7309 32.2588 40.7004C32.0759 40.7004 31.7405 40.9138 31.5271 41.1576Z" fill="#34373A"/>
<path d="M74.2047 42.62C71.5221 44.2356 71.0038 44.6624 71.0038 45.2721C71.0038 46.5829 72.1317 46.4 75.4545 44.4795C77.1616 43.5345 78.5943 42.5285 78.7163 42.2846C78.8992 41.7359 78.4114 40.8824 77.8322 40.7909C77.5884 40.73 75.9727 41.5835 74.2047 42.62Z" fill="#34373A"/>
<path d="M28.0519 54.2962C27.5032 54.8144 27.4727 55.0278 27.808 55.5765C28.0214 55.8509 29.0883 55.9423 32.1672 55.8814C36.2216 55.7899 36.2521 55.7899 36.3435 55.0583C36.4045 54.662 36.2826 54.2047 36.0387 54.0828C35.8253 53.9304 34.0267 53.8084 32.0758 53.8084C29.2408 53.8084 28.4177 53.8999 28.0519 54.2962Z" fill="#34373A"/>
<path d="M73.9609 54.0828C73.717 54.2047 73.5951 54.662 73.656 55.0583C73.7475 55.7899 73.778 55.7899 77.8323 55.8814C80.9112 55.9423 81.9782 55.8509 82.1916 55.5765C82.5269 55.0278 82.4964 54.8144 81.9477 54.2962C81.5819 53.8999 80.7588 53.8084 77.9238 53.8084C75.9728 53.8084 74.1743 53.9304 73.9609 54.0828Z" fill="#34373A"/>
<path d="M34.2707 65.6663C31.2527 67.4649 30.5821 68.3794 31.771 69.0196C32.2587 69.2634 32.9598 68.9891 35.6729 67.4344C38.5079 65.8188 38.9957 65.4225 38.9957 64.7823C38.9957 63.4105 37.5629 63.6849 34.2707 65.6663Z" fill="#34373A"/>
<path d="M70.9736 64.3251C70.6382 65.1786 71.126 65.6664 74.3878 67.4954C77.0399 68.9586 77.7715 69.2635 78.2287 69.0196C79.4481 68.3795 78.747 67.4649 75.6376 65.6359C72.6197 63.8678 71.2784 63.4715 70.9736 64.3251Z" fill="#34373A"/>
<path d="M43.934 72.0068C40.4893 77.5244 40.154 78.6523 41.922 78.6523C42.5317 78.6523 42.9585 78.1341 44.4217 75.6039C46.3117 72.3422 46.5556 71.1228 45.3362 70.9399C44.8485 70.8789 44.4827 71.1533 43.934 72.0068Z" fill="#34373A"/>
<path d="M64.0535 71.0621C63.5353 71.5804 63.9316 72.7388 65.6082 75.6042C67.4068 78.7441 68.1994 79.3538 68.9919 78.3783C69.3273 77.982 69.2663 77.6467 68.5957 76.3663C66.2484 71.8547 64.8766 70.2696 64.0535 71.0621Z" fill="#34373A"/>
<path d="M53.9634 74.2929C53.872 74.6892 53.7805 76.4573 53.7805 78.2558C53.7805 80.8165 53.872 81.6091 54.2682 81.9749C54.8474 82.5845 55.1523 82.5845 55.7315 81.9749C56.1278 81.6091 56.2192 80.8165 56.2192 78.2558C56.2192 74.11 56.0973 73.6223 54.9999 73.6223C54.3902 73.6223 54.1158 73.8052 53.9634 74.2929Z" fill="#34373A"/>
</svg>
