<svg width="110" height="111" viewBox="0 0 110 111" fill="none" xmlns="http://www.w3.org/2000/svg">
<rect width="110" height="110.049" rx="55" fill="white"/>
<path d="M32.7647 20.2324C27.6616 21.3132 23.5024 25.5818 21.505 31.7657C20.3147 35.4597 19.9179 38.5654 20.0137 43.3949C20.0821 46.9384 20.2736 48.4844 20.9851 51.3985C23.7761 62.6719 32.4364 74.1369 45.6252 84.0285C49.9075 87.2437 54.2855 90.0483 54.9969 90.0483C55.4758 90.0483 58.2941 88.3519 61.222 86.3133C73.8088 77.5573 82.8385 67.3373 87.1345 57.0079C88.4889 53.7654 89.5561 49.6336 89.8981 46.2954C90.1033 44.2705 89.9802 38.6201 89.6929 36.7594C88.8036 31.1911 86.8745 26.9225 83.8783 23.9537C81.101 21.2037 78.2005 19.9998 74.3561 19.9998C71.6882 19.9998 69.636 20.5197 67.0229 21.8741C65.1485 22.8455 63.4931 24.0768 61.6871 25.8828C60.3874 27.1688 58.1437 29.9461 58.1437 30.2608C58.1437 30.3976 59.0877 31.0817 59.2655 31.0817C59.3203 31.0817 59.6896 30.6302 60.1001 30.0829C63.1647 25.9512 66.804 23.1875 70.8536 21.9562C71.9208 21.6279 72.2491 21.5868 74.3561 21.5868C76.6409 21.5731 76.7093 21.5868 77.9816 22.0246C78.6931 22.2709 79.7739 22.7634 80.3759 23.1191C81.7303 23.9127 83.8236 25.9649 84.7539 27.3877C86.5872 30.2198 87.8185 33.9274 88.3111 38.1686C88.5436 40.1524 88.5847 44.5168 88.3795 46.3364C87.1755 57.0899 80.3622 68.3497 69.0614 78.2413L67.3102 79.76L64.6423 78.515L61.9881 77.2699L62.9184 77.0374C66.1199 76.2302 68.8288 73.7128 69.8959 70.5934C70.1285 69.9094 70.1559 69.882 71.4146 69.239C74.8212 67.4741 77.0239 64.861 77.7764 61.7006C78.05 60.5376 78.05 57.774 77.7627 56.4196C77.366 54.4631 76.9145 53.6149 74.3561 49.9072C73.3026 48.3886 73.0563 47.6361 72.9058 45.5839C72.6733 42.533 71.9071 40.1661 70.4569 37.9634C69.0887 35.8838 67.0229 34.0642 65.0527 33.1886C62.3849 32.012 58.6909 32.012 55.2432 33.1886L53.9024 33.6401L53.3689 32.6687C51.9186 30.0282 49.6749 27.1004 47.7048 25.2671C44.7633 22.5308 41.6029 20.8343 38.292 20.205C36.8828 19.9451 34.0508 19.9587 32.7647 20.2324ZM39.195 21.9836C44.0519 23.3654 48.7993 27.5929 52.0281 33.4212L52.5343 34.3242L51.7955 34.803L51.043 35.2955L48.4709 35.3639C46.706 35.405 45.6389 35.5008 45.078 35.6649C41.3019 36.7047 39.0308 38.6064 37.9089 41.6984C37.4438 42.9708 37.2522 44.12 37.1428 46.268C36.9923 49.059 36.5545 50.1261 34.4749 52.9035C32.5048 55.5166 32.0123 56.7753 32.0123 59.1969C32.0123 60.825 32.2175 61.6185 33.011 63.1508C33.955 64.9841 36.2672 67.1731 38.8529 68.7191C39.7559 69.2527 39.7696 69.2664 39.9338 70.0462C40.0295 70.4703 40.3852 71.4143 40.7273 72.1258C41.2472 73.2066 41.5345 73.6033 42.4648 74.52C43.1352 75.1904 43.9014 75.7924 44.4349 76.066C45.3516 76.5585 47.0891 77.1879 47.4996 77.1879C48.0194 77.1879 47.7048 77.4341 46.4461 78.0087C45.721 78.3234 45.1053 78.6518 45.0643 78.7202C44.9822 78.857 45.4337 80.0609 45.5842 80.0609C45.721 80.0609 50.9199 77.612 51.2619 77.3794C51.5629 77.1879 51.5766 77.0921 51.5766 75.6008C51.5766 74.1369 51.5903 74.0138 51.8229 74.1096C52.9174 74.5747 54.6686 75.1357 54.9969 75.1357C55.3253 75.1357 57.0765 74.5747 58.1847 74.1096C58.4036 74.0138 58.4173 74.1369 58.4173 75.6008V77.1879L58.8414 77.4478C59.074 77.5846 60.7568 78.3918 62.5901 79.2537C64.4234 80.102 65.901 80.8408 65.8599 80.8955C65.7642 81.0597 62.1797 83.7549 60.4695 84.9452C58.5131 86.2996 55.1885 88.4066 54.9969 88.4066C54.5318 88.4066 48.3888 84.2611 45.2832 81.8532C41.0556 78.5834 36.0072 73.8086 33.0931 70.3472C26.7997 62.8635 23.2835 55.9133 21.8607 48.1287C21.5871 46.6784 21.546 45.9944 21.546 42.6424C21.546 37.9771 21.7786 36.1164 22.8047 32.7234C24.5012 27.073 28.1541 22.996 32.5732 21.8468C34.5296 21.3269 37.088 21.3816 39.195 21.9836ZM62.7269 34.0369C64.1635 34.3652 65.9694 35.3776 67.2007 36.5269C69.7728 38.9621 71.1136 41.8489 71.3462 45.5155C71.5103 48.2244 71.8113 48.9906 73.8909 51.9594C75.4095 54.1211 75.8063 54.9009 76.203 56.4606C76.5314 57.774 76.5724 60.1546 76.2715 61.4269C75.6284 64.1358 73.5625 66.4343 70.279 68.0761L68.8835 68.7738L68.5962 69.6768C67.4607 73.1929 64.4781 75.5598 60.7294 75.9018L59.7854 75.9976V74.6842V73.3844L60.7978 72.8235C62.1933 72.0574 63.8625 70.7713 64.7791 69.7589C65.6821 68.7738 66.5577 67.0637 67.1323 65.1893C67.488 64.0264 67.5427 63.9169 67.8711 63.9169C68.4047 63.9169 69.636 63.5202 70.279 63.1371C71.0725 62.6719 71.9208 61.7142 72.3449 60.7976C72.8374 59.7031 72.9332 57.9108 72.5364 57.131C71.9892 56.0638 70.8126 55.3114 69.2256 55.0241C66.8313 54.5726 64.3413 53.7106 64.4097 53.3413C64.4508 53.0539 63.9309 52.7803 62.6585 52.4383C61.5366 52.1236 60.9073 51.7542 58.7183 50.1261C56.9534 48.8127 54.5181 46.5143 52.9311 44.6673C51.9597 43.5591 51.7681 43.3949 51.3851 43.3949C50.9609 43.3949 50.9336 43.4359 49.9622 45.4061C48.8266 47.7593 47.5406 49.9346 46.4598 51.3711C45.5978 52.5067 43.9971 54.08 43.3541 54.4084C43.1215 54.5315 42.2733 54.7368 41.4798 54.8736C39.3044 55.243 38.0731 55.9407 37.4574 57.131C37.0607 57.9108 37.1564 59.7031 37.649 60.7976C38.0731 61.7142 38.9213 62.6719 39.7149 63.1371C40.3579 63.5202 41.5892 63.9169 42.1228 63.9169C42.4511 63.9169 42.5059 64.0264 42.8616 65.1893C43.4225 67.0363 44.3392 68.7875 45.2558 69.7999C46.1588 70.8123 47.7869 72.0437 49.2097 72.8372L50.2085 73.3844V74.6705V75.9565H49.6065C48.1699 75.9565 46.0767 75.3135 44.7906 74.4653C43.0257 73.316 41.8081 71.5101 41.3703 69.4032C41.2609 68.8422 41.1377 68.336 41.0967 68.2813C41.0693 68.2266 40.6862 67.9803 40.2484 67.734C38.5519 66.7763 37.3617 65.8734 36.103 64.6147C35.0222 63.5339 34.6938 63.0824 34.2013 62.0836C33.6403 60.9755 33.5993 60.7839 33.5446 59.621C33.4488 57.3362 33.7772 56.4606 35.802 53.7243C38.0321 50.6871 38.3741 49.7841 38.6477 46.1996C38.8529 43.5317 39.0445 42.7382 39.7696 41.2743C40.3716 40.0977 41.726 38.7296 42.8889 38.1002C44.7086 37.1425 47.4175 36.6637 50.1401 36.8279L51.3714 36.8963L52.1649 36.3764C55.5579 34.1873 59.5802 33.2981 62.7269 34.0369ZM56.6387 50.4955C57.4322 51.1386 58.3078 51.8226 58.5951 52.0142C58.8688 52.2057 59.1013 52.3972 59.1013 52.4383C59.1013 52.4793 58.8688 52.5888 58.5815 52.6709C58.3078 52.753 57.9521 52.9171 57.8153 53.0129C57.569 53.1908 57.569 53.2181 57.9384 53.8338C58.3215 54.4905 58.4036 54.5589 58.6225 54.3674C58.9098 54.1074 59.9496 53.7927 60.5653 53.7791C61.1125 53.7654 61.4956 53.8885 62.7953 54.5178C63.6572 54.942 64.998 55.4892 65.7779 55.7355C67.3923 56.2554 67.2691 55.9818 66.9544 58.4718C66.4756 62.1931 65.641 65.4493 64.6833 67.2278C63.4794 69.4989 60.0864 71.8795 56.0504 73.2887L54.9969 73.6718L53.9298 73.2887C49.8664 71.8521 46.5282 69.4989 45.3105 67.2278C44.6949 66.0786 43.9834 63.8485 43.5867 61.8647C43.2857 60.2914 42.8205 57.0763 42.8205 56.5564C42.8205 56.4059 43.1626 56.1596 43.7645 55.886C44.2708 55.6397 45.0095 55.1609 45.3926 54.8188C45.7757 54.4768 46.1177 54.2579 46.1725 54.3263C46.2135 54.4084 46.5008 54.3537 46.8976 54.1895C48.1836 53.6286 49.9075 53.6422 51.0704 54.2032C51.3714 54.3537 51.645 54.4768 51.6587 54.4768C51.6724 54.4768 51.8502 54.1895 52.0554 53.8338C52.4248 53.2181 52.4248 53.1908 52.1786 53.0129C51.6313 52.6161 50.1948 52.2878 48.9635 52.2878H47.7321L48.5393 51.0838C49.3329 49.9072 50.7147 47.4993 51.3167 46.2543L51.6176 45.6113L53.4099 47.472C54.395 48.4844 55.8452 49.8525 56.6387 50.4955ZM41.425 57.733L41.5345 58.7317L40.8094 58.0066L40.0843 57.2952L39.537 57.8287L38.9897 58.3623L40.481 59.8809C41.7123 61.1259 41.986 61.468 42.0407 61.9058C42.1228 62.3983 42.1091 62.412 41.7534 62.3299C39.9885 61.9058 38.7161 60.3872 38.7161 58.7043C38.7161 57.5825 39.2223 57.0352 40.6999 56.5974C41.0967 56.4743 41.2609 56.4743 41.2745 56.5837C41.3019 56.6658 41.3703 57.1857 41.425 57.733ZM70.2106 56.9531C71.0041 57.3499 71.2778 57.8151 71.2778 58.7043C71.2778 60.3872 70.0054 61.9058 68.2405 62.3299C67.8848 62.412 67.8711 62.3983 67.9532 61.9058C68.0079 61.468 68.2815 61.1259 69.5129 59.8809L71.0041 58.3623L70.4569 57.8287L69.9096 57.2952L69.1845 58.0066L68.4594 58.718L68.5552 57.9382C68.6099 57.5004 68.6646 56.9805 68.6646 56.7753C68.6783 56.4196 68.692 56.4196 69.1982 56.5564C69.4718 56.6385 69.9233 56.8163 70.2106 56.9531Z" fill="#7CB518"/>
<path d="M47.7458 56.4744C47.6364 56.5155 47.1849 56.707 46.7608 56.8986L45.9673 57.268V57.9247C45.9673 58.5677 45.9809 58.5814 46.3777 58.5814C46.6103 58.5814 47.0481 58.4582 47.3354 58.3077L47.8826 58.0341V58.7866V59.5391H48.9772H50.0717V58.7866V58.0341L50.6326 58.3214C51.2619 58.6361 51.2893 58.6224 51.5903 57.7331C51.7955 57.1038 51.7818 57.1038 50.6463 56.666C49.9622 56.406 48.3068 56.2966 47.7458 56.4744Z" fill="#7CB518"/>
<path d="M59.1971 56.7207C58.7456 56.8986 58.3625 57.0901 58.3215 57.1311C58.2394 57.1995 58.6772 58.5814 58.773 58.5814C58.814 58.5814 59.0877 58.4582 59.375 58.3077L59.9222 58.0341V58.7866V59.5391H61.0167H62.1112V58.7866V58.0341L62.6585 58.3077C62.9458 58.4582 63.411 58.5814 63.6846 58.5814H64.1634V57.9247V57.2816L63.3015 56.8712C62.5901 56.5428 62.2481 56.4608 61.222 56.4334C60.1685 56.3923 59.8812 56.4334 59.1971 56.7207Z" fill="#7CB518"/>
<path d="M51.1115 65.7639C50.8105 66.0376 50.6189 66.3112 50.66 66.4206C50.7831 66.749 52.3975 67.7477 53.191 67.9666C53.6151 68.0898 54.4223 68.1992 54.997 68.1992C55.5716 68.1992 56.3788 68.0898 56.8029 67.9666C57.6101 67.7341 59.2108 66.749 59.334 66.407C59.3887 66.2838 59.2245 66.0376 58.8825 65.7639L58.3489 65.3125L57.7195 65.7776C56.8439 66.4206 56.0641 66.6669 54.9559 66.6669C53.9161 66.6669 52.6574 66.2017 52.1102 65.6134C51.946 65.4356 51.7682 65.2851 51.7271 65.2851C51.6861 65.2988 51.4124 65.504 51.1115 65.7639Z" fill="#7CB518"/>
</svg>
