<svg width="110" height="110" viewBox="0 0 110 110" fill="none" xmlns="http://www.w3.org/2000/svg">
<rect width="110" height="110.005" rx="55" fill="white"/>
<path d="M37.0736 20.2509C29.9621 23.1677 23.545 29.3486 20.5588 36.1824C20.0171 37.4046 19.9615 37.6269 20.0171 38.4047C20.0865 39.5437 20.6282 40.4465 21.5727 41.0437C22.1839 41.4049 22.3783 41.4604 23.3089 41.4604C24.3229 41.4604 24.6701 41.3632 25.4757 40.8493C25.7396 40.6826 26.5313 41.0437 33.1428 44.3495C38.6709 47.1274 40.6432 48.1692 41.0044 48.5442C41.7128 49.2803 41.935 50.0581 41.935 51.836C41.935 52.6555 41.9211 53.3361 41.9072 53.3361C41.8794 53.3361 41.0877 53.0583 40.1432 52.725C38.4348 52.1277 38.4209 52.1277 38.1987 51.5582C37.3236 49.3081 34.3095 48.8081 32.7817 50.6554C31.7538 51.9055 30.9344 56.2946 30.9344 60.5588C30.9482 66.0868 32.3928 71.1982 35.2818 75.9346C38.1292 80.5877 42.685 84.699 47.6436 87.0742C51.7828 89.0743 55.9358 90.0049 60.5055 90.0049C65.1585 89.991 69.1866 89.0743 73.284 87.088C86.757 80.5738 93.1879 65.2812 88.4515 51.0304C86.9931 46.6552 84.3263 42.4744 80.8678 39.1547C76.3814 34.8628 70.8811 32.1543 64.7835 31.2376C62.4917 30.9043 58.6026 30.8765 56.3525 31.196C54.519 31.446 51.3383 32.2377 50.5883 32.6266C48.0603 33.9183 48.4076 37.738 51.13 38.5436L51.7272 38.7103L55.4358 48.9053C57.4775 54.5167 59.1582 59.1142 59.1582 59.1281C59.1721 59.267 58.5054 59.0726 56.5747 58.3503L54.3663 57.5308L54.2829 55.5446C54.1718 53.3639 53.8107 51.2943 53.2412 49.697C52.7689 48.4192 52.4356 47.7247 46.213 35.6545L41.0738 25.6817L41.4488 24.8345C41.9489 23.7094 41.8933 22.5427 41.2822 21.5565C40.4488 20.2092 38.6015 19.6258 37.0736 20.2509ZM39.6571 21.8204C40.2127 22.3482 40.4488 22.8899 40.3793 23.5427C40.2682 24.5011 39.9765 24.765 38.0042 25.7373C32.4206 28.4875 28.5592 32.2932 25.7396 37.8213C24.6701 39.9187 24.3784 40.1826 23.2117 40.0992C22.5867 40.0576 22.3922 39.9742 21.9755 39.5575C21.5727 39.1547 21.4616 38.9186 21.4199 38.3769C21.3505 37.7658 21.4338 37.5435 22.2672 35.9046C25.2535 29.9598 30.0037 25.2512 36.0319 22.2649C37.6847 21.4593 37.8931 21.3759 38.5737 21.4315C39.1015 21.4732 39.3932 21.5704 39.6571 21.8204ZM45.7408 37.7936C49.991 46.044 51.63 49.3637 51.9911 50.4332C52.8245 52.9055 52.9078 53.7945 52.9078 60.3643C52.9078 65.8091 52.894 66.2396 52.6578 66.5313C52.3245 66.948 51.6855 66.948 51.3522 66.5313C51.1161 66.2396 51.1022 65.8229 51.1022 60.7115C51.1022 55.6418 51.0744 55.1696 50.8383 54.6417C50.4771 53.85 49.8382 53.4333 48.8937 53.3639C47.9909 53.3083 47.3797 53.6278 46.838 54.4334C46.5603 54.8501 46.5186 55.0723 46.5186 56.3502C46.5186 57.9614 46.3519 58.5309 45.7547 59.0031C45.1018 59.517 44.1296 59.3365 43.6434 58.6281C43.4212 58.3086 43.3795 57.7808 43.324 53.9612L43.2545 49.6415L42.7961 48.7247C42.5461 48.2247 42.0878 47.5858 41.7822 47.2941C41.4072 46.9469 38.8376 45.5996 34.004 43.1966C30.0315 41.2243 26.7119 39.5853 26.6147 39.5437C26.3924 39.4742 27.3508 37.5297 28.4342 35.8907C30.3232 33.0155 33.0178 30.3348 35.8235 28.5291C36.8791 27.8485 39.7821 26.404 39.8793 26.5012C39.921 26.5568 42.56 31.6404 45.7408 37.7936ZM62.7001 32.3766C75.9369 33.5016 86.6737 43.7661 88.396 56.9058C88.6321 58.7531 88.6738 62.0727 88.4515 63.7534C86.8403 76.7541 76.7425 86.8658 63.7418 88.477C62.0473 88.6854 58.5887 88.6437 56.7414 88.4076C52.6717 87.8798 48.477 86.2824 44.9907 83.9629C35.9208 77.9209 31.1427 67.5036 32.5039 56.7391C32.6983 55.1973 33.4206 52.2249 33.7262 51.7249C34.3234 50.7387 35.6291 50.6137 36.4625 51.4471C37.1153 52.0999 37.1708 52.5027 36.8097 53.8917C36.643 54.5445 36.4208 55.5446 36.2958 56.1141C36.0041 57.6002 35.8791 61.6005 36.0874 63.2811C37.1153 71.7261 42.2822 78.9348 49.8938 82.5739C55.6302 85.3241 62.2278 85.7269 68.3948 83.699C70.0199 83.1712 73.2146 81.5322 74.6174 80.5182C81.7289 75.3929 85.5903 67.1564 84.8819 58.5864C84.5902 55.1418 83.9096 52.6555 82.354 49.5164C78.9927 42.7522 72.8534 38.0297 65.2836 36.4324C63.7001 36.099 63.2418 36.0573 60.5472 36.0573C57.2692 36.0435 56.158 36.1962 53.4218 36.9602L51.9217 37.3769L51.3244 37.0852C49.9354 36.4185 49.9216 34.4878 51.2827 33.835C52.0189 33.4878 54.7135 32.821 56.3803 32.5849C58.8387 32.2238 60.3527 32.1682 62.7001 32.3766ZM65.0196 37.7658C70.0477 38.8631 74.5758 41.4882 77.7982 45.1968C80.5622 48.4053 82.2706 51.8221 83.1457 55.9613C83.479 57.5308 83.5207 58.003 83.5207 60.4893C83.5207 62.9617 83.479 63.4617 83.1457 65.0173C82.4929 68.1286 81.4234 70.6982 79.7288 73.2261C73.2701 82.8795 61.075 86.2963 50.5883 81.3933C44.0323 78.3237 39.3237 72.3233 37.7681 65.0729C37.3931 63.3228 37.2403 59.4059 37.4764 57.5586C37.657 56.2252 38.1292 54.0723 38.2959 53.7806C38.3792 53.6556 38.8237 53.7528 40.1432 54.1973L41.8655 54.7945L41.935 56.6696C41.9905 58.3364 42.0461 58.6142 42.3517 59.1698C42.8378 60.0309 43.6295 60.5588 44.6157 60.656C45.2824 60.7254 45.5046 60.6838 46.1713 60.3504C46.6992 60.1004 47.0742 59.7948 47.3242 59.4059C47.6575 58.892 47.6992 58.6975 47.7687 57.0724C47.8381 55.614 47.8937 55.239 48.1159 55.0029C48.4492 54.6417 49.0743 54.6417 49.4215 55.0307C49.6993 55.3084 49.6993 55.5307 49.741 61.0588C49.7827 66.6285 49.7966 66.7952 50.0743 67.1841C51.1022 68.5592 52.9078 68.5592 53.9357 67.1841C54.2135 66.8091 54.2274 66.6008 54.269 62.9061C54.2968 60.781 54.3246 59.0309 54.3524 59.0309C54.3663 59.0309 55.158 59.3226 56.1164 59.6698C58.7415 60.656 58.936 60.6976 59.5054 60.5449C60.0471 60.3921 60.5472 59.7531 60.5472 59.1976C60.5472 59.017 58.8943 54.3084 56.8664 48.7386C54.8385 43.1689 53.1856 38.5853 53.1856 38.5436C53.1856 38.3908 56.0747 37.6824 57.6998 37.4463C57.9359 37.4185 59.3665 37.4046 60.8944 37.4324C63.0612 37.4741 63.964 37.5435 65.0196 37.7658Z" fill="#7CB518"/>
<path d="M36.2957 31.168C35.6568 31.4458 34.7401 32.3209 34.3928 32.9737C33.9622 33.7793 33.9622 35.5294 34.3928 36.3211C35.6429 38.6546 38.8931 39.0574 40.5876 37.0712C41.1293 36.46 41.5182 35.4183 41.5182 34.6543C41.5182 33.307 40.5876 31.8347 39.3653 31.2653C38.6292 30.918 36.9902 30.8764 36.2957 31.168ZM38.5042 32.4181C39.1709 32.6681 39.532 32.9876 39.8654 33.6404C40.6293 35.1405 39.4903 36.9739 37.7958 36.9739C35.7401 36.9739 34.6567 34.6682 36.004 33.1404C36.4068 32.6681 37.2541 32.2375 37.768 32.2375C37.8791 32.2375 38.2125 32.3209 38.5042 32.4181Z" fill="#7CB518"/>
<path d="M41.796 40.016C41.2821 40.2243 40.9626 40.5577 40.9626 40.9049C40.9626 41.3633 41.296 41.5716 41.8238 41.4744C43.1711 41.1966 43.2544 41.1966 43.6433 41.6689C44.1295 42.2384 44.1156 42.6967 43.6155 43.2106C43.1016 43.7107 42.6016 43.7245 41.9904 43.2662C41.2682 42.7106 40.6848 42.8634 40.6848 43.6134C40.6848 44.2662 41.8377 45.0163 42.796 44.9885C44.3795 44.9607 45.6157 43.4884 45.3517 41.9883C45.199 41.1966 44.6434 40.4327 43.9767 40.1271C43.3516 39.8493 42.3516 39.7938 41.796 40.016Z" fill="#7CB518"/>
<path d="M61.3389 41.8216C60.0055 42.03 58.7971 43.0995 58.4499 44.3634C58.2415 45.1274 58.3527 46.4747 58.6721 47.1414C58.9777 47.7942 59.6861 48.5165 60.3111 48.8498C60.5611 48.9748 61.2139 49.0998 61.8251 49.1415C62.7835 49.1971 62.9918 49.1693 63.6585 48.8359C64.978 48.1831 65.7281 46.9608 65.7281 45.4885C65.7281 43.0995 63.7696 41.4605 61.3389 41.8216ZM63.2835 43.4884C64.7141 44.3773 64.7141 46.5858 63.2974 47.4331C62.2973 48.0164 61.3667 47.9609 60.5472 47.2803C59.9639 46.7802 59.7138 46.2524 59.7138 45.4885C59.7138 44.7524 59.9361 44.2523 60.5056 43.7384C61.2834 43.0161 62.3529 42.9189 63.2835 43.4884Z" fill="#7CB518"/>
<path d="M69.77 42.3909C69.3255 42.8076 69.2699 42.9465 69.0894 44.1271C68.8532 45.7106 68.5893 46.6689 68.0476 47.8079C67.5893 48.7802 67.5337 49.2385 67.8254 49.933C68.2282 50.8914 69.5755 51.2664 70.5061 50.6969C71.7006 49.9747 73.2702 44.8077 72.784 43.2104C72.534 42.377 71.9368 41.9464 71.02 41.9464C70.3672 41.9464 70.2005 42.002 69.77 42.3909ZM71.4506 44.4744C71.3395 45.655 70.8395 47.4607 70.2839 48.6829C69.9227 49.4608 69.8255 49.5858 69.5061 49.5858C68.9644 49.5858 68.9366 49.2524 69.4088 48.2246C69.9505 46.9884 70.2422 45.9328 70.4089 44.6272C70.5617 43.4326 70.7978 43.0993 71.2839 43.3493C71.534 43.4882 71.5478 43.5993 71.4506 44.4744Z" fill="#7CB518"/>
<path d="M69.9227 53.2806C67.3253 53.7112 64.8113 55.1001 63.1862 57.0169C62.4222 57.9197 61.575 59.3226 61.3527 60.031C61.1444 60.7116 61.3666 60.9616 62.7139 61.6144C66.228 63.295 70.7005 62.9756 73.7979 60.7949C75.5619 59.5726 77.7703 56.6141 77.7703 55.5029C77.7703 54.9473 76.4369 54.1695 74.4785 53.6C73.534 53.3222 70.8394 53.1417 69.9227 53.2806ZM74.3396 55.0029C74.8674 55.1696 75.2702 55.3224 75.2285 55.364C75.1591 55.4474 69.6588 57.1975 69.6171 57.1697C69.5893 57.1419 69.7699 56.5585 70.006 55.8363L70.4505 54.5445L71.9228 54.6279C72.8534 54.6695 73.7423 54.8084 74.3396 55.0029ZM68.742 55.1001C68.742 55.1696 68.5476 55.7807 68.3253 56.4752L67.8948 57.7531L65.7141 58.4475C64.5196 58.8365 63.5195 59.1281 63.4778 59.1004C63.3667 58.9753 63.9501 58.2392 64.9224 57.2808C65.6724 56.5308 66.228 56.128 67.2003 55.6418C68.492 55.0029 68.742 54.9196 68.742 55.1001ZM75.4369 57.1836C74.4507 58.5725 72.4228 60.281 72.0339 60.0449C71.9228 59.9893 71.4227 59.6282 70.9088 59.2393L69.9782 58.5448L72.5895 57.6975C74.0201 57.2252 75.3119 56.8363 75.4508 56.8224C75.6869 56.8086 75.6869 56.8363 75.4369 57.1836ZM69.5476 59.9754C70.1449 60.4338 70.506 60.7949 70.4366 60.8643C70.1727 61.1282 67.992 61.4199 66.9364 61.3366C65.9363 61.2533 63.8806 60.7393 63.8806 60.5727C63.8806 60.4477 68.242 59.0726 68.3948 59.1559C68.4781 59.1837 68.9921 59.5587 69.5476 59.9754Z" fill="#7CB518"/>
<path d="M59.3805 62.1145C56.6304 64.9619 56.672 69.6844 59.4639 72.4901C59.9917 73.0318 60.4084 73.3374 60.6028 73.3374C60.964 73.3374 61.8807 72.4624 62.4918 71.5456C63.7558 69.6844 64.0336 66.8648 63.1863 64.7258C62.589 63.2257 61.0473 61.3923 60.3806 61.3923C60.2 61.3923 59.8111 61.6701 59.3805 62.1145ZM61.089 63.8369C62.7418 66.1564 62.7141 68.9899 61.0056 71.2262L60.6584 71.6984L60.2417 71.2956C60.0195 71.0873 59.6028 70.4483 59.325 69.8928C58.5055 68.226 58.5333 66.2259 59.3805 64.5313C59.7417 63.823 60.2695 63.0729 60.4361 63.0729C60.4917 63.059 60.7834 63.4063 61.089 63.8369Z" fill="#7CB518"/>
<path d="M77.1593 62.0171C76.3954 62.2949 76.0481 62.6699 76.1592 63.1143C76.2842 63.5866 76.8398 63.7394 77.3815 63.4199C78.4233 62.7949 79.6594 64.1005 78.9511 65.0867C78.4788 65.7812 77.7427 65.7951 76.9093 65.1145C76.5898 64.8644 76.4787 64.8367 76.1731 64.9756C75.4786 65.295 75.8676 66.2673 76.8954 66.7951C77.326 67.0173 78.6872 66.9896 79.1455 66.7396C80.09 66.2534 80.6595 65.0867 80.4928 63.9755C80.2706 62.4893 78.576 61.5031 77.1593 62.0171Z" fill="#7CB518"/>
<path d="M41.7545 62.4337C41.06 62.6699 40.5738 63.1282 40.2544 63.8227C39.1849 66.1284 41.935 68.4619 44.0463 67.0312C45.4352 66.1006 45.6297 64.2116 44.4491 63.0449C43.9768 62.5587 43.1712 62.2254 42.5601 62.2254C42.4073 62.2393 42.0462 62.3226 41.7545 62.4337ZM43.5323 64.0311C43.9213 64.42 43.9074 65.3228 43.4907 65.7256C43.1018 66.1284 42.2267 66.1562 41.81 65.7812C41.2128 65.2395 41.3517 64.17 42.0739 63.7949C42.5045 63.5588 43.1712 63.6699 43.5323 64.0311Z" fill="#7CB518"/>
<path d="M44.7406 68.8928C44.2545 69.1983 43.8795 69.8928 43.8795 70.504C43.8795 71.1151 44.2823 71.754 45.3795 72.8791C47.1158 74.657 49.2409 76.0182 50.2687 76.0043C51.6577 75.9765 52.5466 74.6987 52.0327 73.4625C51.8105 72.9208 51.5049 72.6569 49.9909 71.6846C49.4076 71.3096 48.5325 70.5734 47.9908 69.9901C47.4769 69.4206 46.9074 68.8928 46.7407 68.7955C46.2824 68.5316 45.2545 68.5733 44.7406 68.8928ZM47.0741 71.1012C47.6713 71.6985 48.6436 72.5041 49.2409 72.893C50.8937 73.9486 50.866 73.9347 50.7687 74.2681C50.616 74.7542 50.2826 74.7542 49.4492 74.2959C48.3103 73.6569 47.2685 72.8097 46.199 71.6846C45.2545 70.6707 45.1434 70.4623 45.4351 70.1706C45.7546 69.8512 46.0046 70.0039 47.0741 71.1012Z" fill="#7CB518"/>
<path d="M68.4642 70.129C66.8252 70.6568 65.839 72.0319 65.8251 73.7681C65.8251 75.796 67.4919 77.5044 69.5059 77.5044C70.3393 77.5044 71.381 77.0877 72.006 76.5182C72.8672 75.7265 73.2283 74.907 73.2283 73.7681C73.2422 72.2541 72.52 71.0735 71.1866 70.3929C70.5754 70.0734 69.0614 69.9345 68.4642 70.129ZM70.4504 71.5874C71.0338 71.8235 71.6032 72.5041 71.8116 73.1986C72.1311 74.2681 71.4782 75.4765 70.3393 75.921C69.5753 76.1988 68.9086 76.1154 68.1864 75.6432C67.0335 74.8792 66.853 72.9764 67.853 72.0596C68.5892 71.4068 69.5892 71.2124 70.4504 71.5874Z" fill="#7CB518"/>
<path d="M56.7276 75.9072C56.047 76.1433 55.3108 76.9628 55.1858 77.6017C55.1302 77.8656 55.1302 78.3795 55.158 78.7546C55.3525 80.7825 57.7971 81.6436 59.3944 80.2408C60.5472 79.2268 60.575 77.5184 59.4499 76.4628C58.686 75.7266 57.7554 75.5461 56.7276 75.9072ZM58.4777 77.4906C58.7554 77.7684 58.8805 78.0323 58.8805 78.3379C58.8805 78.8518 58.2276 79.588 57.7832 79.588C57.2831 79.588 56.8109 79.2824 56.5887 78.7962C56.3109 78.199 56.4914 77.6017 57.0609 77.2962C57.6165 76.9906 58.0332 77.0461 58.4777 77.4906Z" fill="#7CB518"/>
</svg>
