<svg width="110" height="110" viewBox="0 0 110 110" fill="none" xmlns="http://www.w3.org/2000/svg">
<rect width="110" height="110" rx="55" fill="white"/>
<path d="M55 33.5473L54.3025 34.2639C54.6907 34.6418 55.3093 34.6418 55.6975 34.2639L55 33.5473ZM54.0136 84.0577L53.4904 84.9099L54.0136 84.0577ZM55.9864 84.0577L56.5096 84.9099L55.9864 84.0577ZM55 84.4898L55 83.4898L55 84.4898ZM54.5367 83.2054C51.715 81.4731 43.2731 76.0795 35.5485 69.0389C31.686 65.5183 28.0312 61.6113 25.3483 57.5694C22.6598 53.519 21 49.4125 21 45.4722H19C19 49.9611 20.8813 54.4561 23.682 58.6755C26.4884 62.9035 30.2711 66.9348 34.2013 70.517C42.0623 77.682 50.6271 83.1521 53.4904 84.9099L54.5367 83.2054ZM21 45.4722C21 35.8862 25.6218 29.5083 31.9297 27.2602C38.2618 25.0034 46.6251 26.7904 54.3025 34.2639L55.6975 32.8307C47.6254 24.973 38.4888 22.7993 31.2583 25.3762C24.0035 27.9618 19 35.2119 19 45.4722H21ZM56.5096 84.9099C59.3729 83.1521 67.9377 77.6822 75.7987 70.5172C79.7289 66.935 83.5116 62.9036 86.318 58.6756C89.1187 54.4561 91 49.9611 91 45.4721H89C89 49.4125 87.3402 53.519 84.6517 57.5695C81.9688 61.6114 78.314 65.5185 74.4515 69.039C66.7269 76.0796 58.285 81.4731 55.4633 83.2054L56.5096 84.9099ZM91 45.4721C91 35.2119 85.9965 27.9618 78.7417 25.3762C71.5112 22.7993 62.3746 24.973 54.3025 32.8307L55.6975 34.2639C63.3749 26.7904 71.7382 25.0034 78.0703 27.2602C84.3782 29.5082 89 35.8861 89 45.4721H91ZM53.4904 84.9099C53.8652 85.14 54.3715 85.4898 55 85.4898L55 83.4898C55.05 83.4898 55.0689 83.5082 55.0036 83.4774C54.9652 83.4593 54.9115 83.4307 54.8306 83.3834C54.7494 83.336 54.6567 83.2791 54.5367 83.2054L53.4904 84.9099ZM55.4633 83.2054C55.3433 83.2791 55.2506 83.336 55.1694 83.3834C55.0885 83.4307 55.0348 83.4593 54.9964 83.4774C54.9311 83.5082 54.95 83.4898 55 83.4898L55 85.4898C55.6285 85.4898 56.1348 85.14 56.5096 84.9099L55.4633 83.2054Z" fill="#F0831C"/>
</svg>
