<svg width="110" height="111" viewBox="0 0 110 111" fill="none" xmlns="http://www.w3.org/2000/svg">
<rect x="-7.62939e-06" width="110" height="110.846" rx="55" fill="white"/>
<path d="M70.49 20.3666C69.0422 21.0835 68.2972 22.6719 68.6346 24.3024C68.9719 25.9189 70.3776 27.0293 72.1065 27.0293C73.1466 27.0293 73.7229 26.8185 74.4539 26.1859C75.2832 25.4409 75.5924 24.7522 75.5924 23.5152C75.5924 22.3486 75.3113 21.6458 74.5804 20.957C73.5262 19.959 71.8113 19.706 70.49 20.3666ZM73.2731 21.716C74.482 22.5454 74.5944 24.3024 73.484 25.1879C73.2731 25.3425 72.9077 25.5393 72.6406 25.6237C71.2772 26.0735 69.6888 24.6116 69.9699 23.1498C70.0683 22.6297 70.7711 21.7301 71.2209 21.5474C71.8113 21.3084 72.7952 21.3927 73.2731 21.716Z" fill="#7CB518"/>
<path d="M83.5342 26.8327C79.7812 27.6339 76.7028 30.389 75.4518 34.0576C74.8334 35.8709 74.6647 38.6962 75.1426 39.0898C75.6908 39.5536 78.3755 39.3709 80.1607 38.7665C84.6446 37.2484 87.6105 33.1159 87.6105 28.407C87.6105 26.6219 87.5964 26.6078 85.8113 26.6219C85.0663 26.6219 84.0402 26.7203 83.5342 26.8327ZM83.0422 30.1219L80.9338 32.2303L80.737 31.0496C80.6386 30.389 80.5824 29.7564 80.6386 29.6299C80.8073 29.1661 83.6607 28.0416 84.729 28.0275C85.1085 28.0135 84.982 28.1681 83.0422 30.1219ZM86.0081 30.5717C85.8816 31.0637 85.5302 31.9633 85.2209 32.5958L84.6727 33.7343L83.5763 33.5516C82.9719 33.4532 82.3535 33.3689 82.1988 33.3689C82.002 33.3548 82.5081 32.7645 84.0261 31.2464C86.3314 28.9412 86.4157 28.899 86.0081 30.5717ZM79.5141 32.16L79.7249 33.4251L78.0101 35.14C77.0824 36.0817 76.2952 36.8408 76.2812 36.8267C76.253 36.8127 76.3233 36.3488 76.4358 35.8147C76.6747 34.5777 77.0683 33.5657 77.7149 32.5396C78.249 31.6821 79.2189 30.5998 79.2751 30.7825C79.3033 30.8388 79.4016 31.4572 79.5141 32.16ZM82.4097 34.7745L83.5904 34.9432L82.8595 35.6179C82.4659 35.9833 81.8053 36.4753 81.3976 36.7002C80.5261 37.1922 78.8113 37.7825 77.9257 37.895L77.3073 37.9793L79.0502 36.2223C80.1326 35.14 80.8635 34.5074 81.0041 34.5496C81.1165 34.5777 81.749 34.6761 82.4097 34.7745Z" fill="#7CB518"/>
<path d="M29.6566 27.3388C29.516 27.4513 29.263 28.1119 29.0522 28.9272C28.6024 30.6842 28.5321 33.3408 28.9116 35.0838C29.4036 37.3328 30.4438 39.4553 31.8915 41.1701L32.6506 42.0557L32.0321 42.4774C30.3594 43.63 29.7128 45.2465 29.6988 48.2545C29.6988 50.3348 29.1646 50.7846 26.7048 50.7846C24.9056 50.7846 23.8233 51.0517 22.8112 51.7404C21.3072 52.7665 20.5622 54.2284 20.5622 56.126C20.5622 57.4894 20.8996 58.4874 21.7148 59.5135C22.1646 60.0758 22.2349 60.2585 22.0944 60.3569C21.9819 60.4272 21.8554 60.4834 21.7992 60.4834C21.7289 60.4834 21.4197 60.7224 21.0964 61.0035C20.3233 61.7063 20 62.4513 20 63.5477C20 64.7706 22.1787 77.5898 22.6004 78.7987C23.0923 80.2324 24.006 81.6661 25.1305 82.7625C26.7329 84.3368 28.4618 85.2224 30.6968 85.6159L31.9056 85.8268L31.9899 86.881C32.0883 88.1601 32.5803 89.2284 33.3815 89.9172C34.5341 90.9011 33.0863 90.8449 55 90.8449C76.9136 90.8449 75.4659 90.9011 76.6185 89.9172C77.4337 89.2284 77.9116 88.1601 78.01 86.867L78.0944 85.8127L78.8815 85.7143C82.761 85.2224 86.1908 82.4111 87.4418 78.6862C87.8353 77.5196 90 64.6862 90 63.5617C90 62.9995 89.9016 62.4513 89.7329 62.0999C89.4237 61.4252 88.5241 60.5818 87.8494 60.3288C87.3855 60.1742 87.3715 60.132 87.4839 59.7244C87.6526 59.12 87.6385 58.0798 87.4558 57.5457C87.3012 57.0959 87.3153 57.0677 88.004 56.4633C88.9598 55.634 89.3393 54.8047 89.3393 53.6099C89.3393 52.2465 88.8614 51.3187 87.7088 50.4051L87.3574 50.138L87.6385 49.2946C87.8634 48.6481 87.9056 48.2123 87.8634 47.2705C87.7932 45.7806 87.3715 44.7826 86.3594 43.7143C84.4759 41.7183 81.2992 41.4372 79.0361 43.0537L78.6144 43.3489L78.1506 42.9975C77.4056 42.4352 76.6466 42.1822 75.7048 42.1822C74.1305 42.1681 72.753 43.1099 72.2048 44.5577L71.9799 45.1481H71.1646C68.7189 45.134 66.9478 47.4392 67.5663 49.8007C67.749 50.4894 67.749 50.5878 67.5522 50.7003C67.4257 50.7706 67.1024 51.0236 66.8213 51.2766C66.3293 51.7264 66.3012 51.7264 65.261 51.6561L64.2068 51.5858L62.6887 48.5778L61.1707 45.5697L61.8032 44.881C62.6325 43.9954 62.9136 43.3348 62.9136 42.2103C62.9277 41.0718 62.5482 40.2284 61.6626 39.3991C60.8193 38.626 60.1867 38.373 59.0622 38.387C58.3454 38.387 57.9659 38.4713 57.4036 38.7525L56.6727 39.132L56.2229 38.7806C55.3514 38.134 54.8313 37.9372 53.8755 37.9513C52.6245 37.9513 52.0763 38.2183 50.7831 39.4834L49.6867 40.5376L49.6446 38.387C49.5883 36.2786 49.5743 36.2083 49.1245 35.2946C47.5502 32.0898 43.4458 31.2886 40.761 33.636L40.1426 34.1842L39.8333 33.6219C38.245 30.8107 34.9558 28.3649 31.6104 27.5215C30.008 27.1139 29.9658 27.1139 29.6566 27.3388ZM33.4518 29.7003C34.7309 30.3047 35.7992 31.0497 36.6988 31.9774L37.3032 32.6099L36.5723 34.381L35.8273 36.1661L33.8032 32.7505C32.6928 30.881 31.7369 29.2645 31.6948 29.1521C31.5964 28.8991 32.004 29.0256 33.4518 29.7003ZM32.6225 33.5376L34.6185 36.8971L33.5221 36.7987C30.6265 36.5316 30.8092 36.5878 30.5843 35.9553C30.1767 34.7886 29.9518 32.9051 30.0361 31.5979C30.0783 30.895 30.1626 30.1922 30.2048 30.0095C30.3172 29.6019 30.1345 29.3348 32.6225 33.5376ZM46.1024 34.0999C46.496 34.3107 47.0442 34.7324 47.3112 35.0557C48.1265 36.0115 48.253 36.5738 48.253 39.4553V41.9854L47.1988 43.0677C45.9618 44.3328 45.7229 44.8248 45.7229 46.1039C45.7229 47.13 46.0321 47.9734 46.6225 48.5216L46.9598 48.8448L46.5522 49.6179C45.5683 51.5015 46.3413 53.8067 48.2811 54.7766C49.7289 55.4934 51.4859 55.1842 52.7088 53.9894C53.0181 53.6802 53.3414 53.4412 53.4116 53.4693C53.4679 53.5115 54.1707 53.8629 54.9719 54.2706L56.4197 55.0155L55.9277 55.5637C54.9859 56.6039 54.7891 58.2485 55.4357 59.5276L55.7028 60.0617H50.7269H45.751L45.9478 59.3167C46.7068 56.5055 46.0321 53.1039 44.1907 50.3629C43.5582 49.4352 42.0542 47.9734 41.1827 47.4392C39.8755 46.6521 38.9197 46.371 37.4297 46.371C36.2209 46.3569 36.01 46.3991 35.1807 46.7926C33.5642 47.5517 32.3976 49.0697 31.8775 51.0657C31.6948 51.7685 31.6526 52.387 31.6948 53.8067C31.765 55.9292 32.1305 57.2224 33.1566 59.0216L33.761 60.0758L29.2349 60.0336L24.7088 59.9914L23.9638 59.5838C22.6285 58.8388 21.9257 57.6441 21.9257 56.126C21.9257 54.6079 22.6285 53.3991 23.9638 52.6822C24.6526 52.3027 24.8494 52.2605 26.747 52.1902C29.0662 52.0918 29.6144 51.9091 30.3875 50.9673C30.9779 50.2505 31.1044 49.7304 31.1044 47.9593C31.1044 45.5135 31.6807 44.2906 33.2128 43.4191C33.9438 43.0115 34.0703 42.9834 36.0241 42.9131C38.3434 42.8288 38.8213 42.6742 39.5944 41.7746C40.2269 41.0296 40.3815 40.3971 40.3815 38.6119C40.3815 36.8549 40.494 36.3489 41.0703 35.4352C42.1245 33.7766 44.3173 33.2003 46.1024 34.0999ZM38.9197 34.9573C39.257 35.5898 39.2711 35.7023 39.1305 36.5175C39.0462 36.9954 38.9759 38.0075 38.9759 38.7806C38.9618 39.638 38.8915 40.2987 38.7791 40.4954C38.6104 40.8187 38.5683 40.7625 37.6546 39.2444L36.6988 37.6561L37.514 35.7726C38.0763 34.4653 38.3574 33.9452 38.4417 34.0858C38.512 34.1842 38.7229 34.5778 38.9197 34.9573ZM34.1546 38.2183L35.4478 38.3167L36.3755 39.8629C36.8815 40.7063 37.2751 41.4232 37.261 41.4513C37.2329 41.4653 36.5442 41.5075 35.743 41.5216L34.267 41.5637L33.4799 40.7906C32.7209 40.0316 31.5261 38.387 31.5261 38.1059C31.5261 38.0075 31.7791 37.9934 32.2008 38.0356C32.5662 38.0918 33.4377 38.1621 34.1546 38.2183ZM54.6205 39.4553C54.8735 39.5537 55.3514 39.9332 55.7028 40.2987C56.0401 40.6501 56.4478 40.9452 56.5883 40.9452C56.7289 40.9452 57.1084 40.7203 57.4317 40.4533C58.2189 39.7786 58.9076 39.5818 59.6667 39.8067C60.4257 40.0456 61.241 40.8609 61.4799 41.6199C61.8454 42.8569 61.8313 42.8709 56.2229 48.4934C51.7671 52.9493 51.0642 53.5959 50.5442 53.7364C49.7008 53.9473 48.9839 53.7224 48.2811 53.0336C47.255 52.0075 47.2269 50.8127 48.1827 49.7023C48.4498 49.379 48.6747 49.0135 48.6747 48.873C48.6747 48.7465 48.3654 48.3107 47.9859 47.9031C47.1566 47.0316 46.9177 46.3569 47.1426 45.5135C47.2691 45.0497 47.761 44.4734 49.8413 42.3649C52.8916 39.2866 53.4538 38.9493 54.6205 39.4553ZM84.1667 43.8268C86.2329 44.8248 87.1185 47.2987 86.1486 49.2946C85.6285 50.3489 85.6707 50.6581 86.3454 51.136C87.6526 52.0356 88.2149 53.132 87.9056 54.1581C87.6667 54.9593 87.1325 55.5075 86.3032 55.8167C85.6707 56.0557 85.5723 56.1541 85.5301 56.5196C85.502 56.7866 85.6144 57.124 85.8534 57.4754C86.1767 57.9533 86.2189 58.136 86.1767 58.8248C86.0783 60.1601 86.5703 60.0617 79.7811 60.0617H73.8072L73.9056 59.4151C74.1727 57.5738 75.4518 54.7344 76.8574 52.879C78.0522 51.2625 80.259 49.1963 81.7349 48.2545C82.4096 47.8328 83 47.3689 83.0422 47.2284C83.1827 46.8489 82.9859 46.4412 82.6205 46.3428C81.5381 46.0758 77.1385 49.8007 75.3393 52.4854C73.9478 54.5798 72.7389 57.5175 72.4719 59.4573L72.3875 60.0617H71.4177C70.5883 60.0617 70.4478 60.0336 70.5181 59.8368C70.7148 59.3308 70.8835 57.7706 70.7992 57.2224C70.5321 55.2967 69.6887 53.8629 68.1707 52.7384L67.6225 52.3448L68.1004 52.0497C68.3534 51.8951 68.7189 51.7264 68.9156 51.6702C69.7028 51.4874 69.8293 50.9955 69.2811 50.2364C68.5924 49.3087 68.7048 48.0577 69.5482 47.2003C70.251 46.4975 71.01 46.3007 71.8675 46.6099C72.992 47.0175 73.2169 46.9051 73.3434 45.8649C73.498 44.6561 74.0883 43.9111 75.1426 43.6019C75.8875 43.377 76.5622 43.5878 77.5743 44.3328C78.5723 45.0637 78.8956 45.1621 79.1908 44.7967C79.5422 44.375 80.6526 43.7003 81.2851 43.5175C82.1566 43.2645 83.2811 43.391 84.1667 43.8268ZM62.8012 52.4995C62.7028 52.9493 61.1847 54.6641 60.763 54.7906C60.6084 54.8328 60.2992 54.7766 60.0602 54.6501C59.8213 54.5236 59.3012 54.383 58.8936 54.3408C58.3875 54.2846 57.5863 53.9754 56.3353 53.3428C55.3373 52.8509 54.4799 52.4151 54.4518 52.387C54.4096 52.3448 54.7189 51.9794 55.1405 51.5577L55.8996 50.7846L57.6426 51.6983C59.512 52.6822 60.0883 52.8087 60.3554 52.3027C60.496 52.0356 60.3976 51.7404 59.5542 50.0537L58.5984 48.1139L59.3574 47.3408L60.1305 46.5677L61.508 49.3228C62.6466 51.5999 62.8715 52.1481 62.8012 52.4995ZM38.9618 47.9593C41.267 48.6762 43.4036 51.0236 44.4016 53.9473C44.753 54.9453 44.7952 55.2826 44.7952 56.8288C44.7952 58.2625 44.753 58.7123 44.514 59.2886L44.2329 59.9914L39.9739 60.0336C35.0683 60.0758 35.5462 60.2023 34.5482 58.5858C32.3835 55.128 32.4819 50.8127 34.7731 48.7605C35.9538 47.7063 37.3032 47.4392 38.9618 47.9593ZM57.8534 49.7304C57.9799 50.0115 58.0924 50.2645 58.0924 50.3067C58.0924 50.3348 57.8393 50.2364 57.516 50.0818C56.9679 49.7866 56.9538 49.7726 57.1928 49.5055C57.516 49.14 57.5863 49.1681 57.8534 49.7304ZM65.5562 53.0898C68.3112 53.7364 70.0401 56.5758 69.2389 59.1481L68.9719 59.9914L65.2189 60.0336L61.4659 60.0617L61.7891 59.4714C62.1827 58.7123 62.2249 57.1521 61.8594 56.4493L61.6345 55.9854L62.6606 55.0015C63.2229 54.4533 63.7851 53.7505 63.9257 53.4553C64.2068 52.8228 64.3333 52.7947 65.5562 53.0898ZM59.765 56.0838C61.0301 57.0256 61.1004 58.5577 59.9197 59.5416C57.9799 61.1722 55.2952 58.4734 56.9257 56.5336C57.1365 56.2947 57.502 55.9995 57.7409 55.9011C58.2891 55.6481 59.2871 55.7324 59.765 56.0838ZM87.7088 61.8328C87.9197 61.9874 88.257 62.4091 88.4257 62.7746L88.763 63.4212L88.4538 65.2906C88.2851 66.3167 88.1165 67.2726 88.0883 67.3991C88.0181 67.638 86.3173 67.6521 55 67.6521H21.9678L21.8976 67.3288C21.8695 67.1601 21.7008 66.2324 21.5462 65.2766C21.2229 63.393 21.2791 62.9714 21.8554 62.2264C22.4879 61.4252 20.3373 61.4814 55.1687 61.5095L87.3153 61.5376L87.7088 61.8328ZM87.6245 70.1119L87.4277 71.3067H55H22.5723L22.3755 70.1119L22.1646 68.9171H55H87.8353L87.6245 70.1119ZM87.1325 73.0918C87.0904 73.3167 86.9217 74.2726 86.7671 75.2424C86.4157 77.4071 86.1626 78.2786 85.6144 79.375C84.7289 81.1461 83.2389 82.622 81.496 83.4653C79.5 84.4352 81.2008 84.379 54.9438 84.379C28.6727 84.379 30.5421 84.4493 28.504 83.4653C26.761 82.622 25.2711 81.1461 24.3855 79.375C23.8373 78.2786 23.5843 77.4071 23.2329 75.2424C23.0783 74.2726 22.9096 73.3167 22.8674 73.0918L22.7831 72.7123H55H87.2169L87.1325 73.0918ZM76.6185 86.7686C76.5341 87.9493 76.0843 88.7224 75.241 89.1581C74.6928 89.4392 74.4819 89.4392 55 89.4392C35.5181 89.4392 35.3072 89.4392 34.759 89.1581C33.9156 88.7224 33.4658 87.9493 33.3815 86.7686L33.3112 85.7846H55H76.6887L76.6185 86.7686Z" fill="#7CB518"/>
<path d="M37.7811 51.8672C36.8393 52.1905 35.7289 53.2869 35.4196 54.2146C34.7028 56.309 35.5883 58.4315 37.5562 59.3311C38.2028 59.6263 38.4558 59.6684 39.3835 59.6122C40.6907 59.5279 41.3935 59.2046 42.1948 58.2909C43.2911 57.0399 43.4879 55.2126 42.6867 53.7367C41.745 52.0078 39.6787 51.2206 37.7811 51.8672ZM40.6345 53.4977C41.6887 54.1865 42.0823 55.7046 41.506 56.8291C40.8454 58.1363 39.1727 58.6704 37.9217 57.9817C37.5 57.7568 36.9096 57.0821 36.7409 56.6463C36.3895 55.7186 36.6847 54.3411 37.3875 53.7086C38.2168 52.9496 39.6646 52.8512 40.6345 53.4977Z" fill="#7CB518"/>
<path d="M59.9198 27.6764C58.0503 28.0278 56.3074 28.9836 54.958 30.3892C54.1427 31.2185 54.0022 31.4434 54.0443 31.7949C54.0865 32.1744 54.7471 32.6945 60.9038 37.0941C64.6568 39.7788 67.8897 42.0418 68.1006 42.1262C68.6347 42.323 69.0142 41.9294 69.6748 40.5238C71.0524 37.6001 70.7853 34.2406 68.972 31.5137C67.9319 29.9394 66.1186 28.59 64.2773 27.9856C63.3777 27.7045 60.7773 27.5218 59.9198 27.6764ZM63.8275 29.3631C64.4178 29.5599 64.9941 29.7989 65.1066 29.9113C65.2612 30.0659 65.0222 30.4595 63.6307 32.4274C62.717 33.7065 61.9439 34.7326 61.9158 34.7045C61.9018 34.6764 61.6909 33.5238 61.452 32.1463C61.2271 30.7547 61.0162 29.4896 60.974 29.3069C60.9038 29.0117 60.9319 28.9977 61.8315 28.9977C62.4499 28.9977 63.1106 29.1101 63.8275 29.3631ZM60.0463 32.1041C60.2993 33.6503 60.4821 34.9434 60.454 34.9716C60.4399 34.9856 59.3435 34.2406 58.0363 33.3129L55.6608 31.6121L56.3777 30.9515C57.0945 30.2908 58.8937 29.2788 59.3435 29.2788C59.5403 29.2788 59.6528 29.7567 60.0463 32.1041ZM67.3134 31.6965C67.6789 32.1041 68.1427 32.821 68.3676 33.2848C69.0845 34.8451 69.3234 34.6483 65.964 35.2105L63.0122 35.7025L63.3355 35.2667C63.5182 35.0278 64.2773 33.9595 65.0363 32.8912C65.7953 31.837 66.47 30.9655 66.5263 30.9655C66.5965 30.9655 66.9479 31.3029 67.3134 31.6965ZM69.1548 37.1081C69.0704 38.1483 68.7471 39.3571 68.3254 40.1583L68.1427 40.5238L65.725 38.7949C64.1648 37.6844 63.3917 37.0659 63.5463 37.0238C63.7431 36.9816 68.6628 36.1101 69.1126 36.0398C69.1829 36.0398 69.1969 36.5037 69.1548 37.1081Z" fill="#7CB518"/>
</svg>
