<svg width="112" height="105" viewBox="0 0 112 105" fill="none" xmlns="http://www.w3.org/2000/svg">
<rect x="0.978409" width="110.043" height="105" rx="52.5" fill="white"/>
<path d="M43.6937 20.2002C40.7755 20.8533 38.2047 22.507 36.4121 24.8832C35.7034 25.8282 34.814 27.593 34.5083 28.6908L34.2721 29.5662H33.202C27.9076 29.5662 23.0439 32.5817 21.3903 36.8756C21.1402 37.5009 21.0568 38.0707 21.0012 39.3213C20.9456 40.7943 20.9734 41.0723 21.293 42.1006C21.9878 44.3101 23.3914 46.1166 25.448 47.4506C27.1572 48.5762 29.3667 49.3266 31.465 49.5211L32.5072 49.6184V54.5377C32.5072 59.985 32.5211 60.0683 33.3827 60.7353C35.8145 62.5835 42.9433 63.7647 53.0736 63.9732C64.4128 64.2233 74.8072 62.8337 77.2529 60.7353C78.2256 59.9016 78.2256 59.9155 78.2256 54.3987V49.4933L79.3512 49.1598C80.8659 48.7291 83.7007 47.3116 85.2293 46.2138C87.5361 44.588 89.426 42.4758 90.2458 40.6137C91.3992 38.029 91.2603 35.083 89.8706 32.4427C89.1619 31.0948 87.4666 29.2883 86.2854 28.6213C84.7707 27.7736 83.4923 27.4401 81.4218 27.3845C79.1984 27.3012 77.3919 27.6069 75.4047 28.399C74.7238 28.6769 74.1541 28.8714 74.1402 28.8436C74.1263 28.8297 73.9317 28.3295 73.7372 27.7597C72.3476 23.8966 68.6234 20.8394 64.399 20.1029C63.19 19.8945 60.2301 20.0196 59.1184 20.3253C57.965 20.6449 56.1307 21.5204 55.1163 22.243L54.2547 22.8544L53.5599 22.3124C52.6428 21.6037 50.8919 20.7561 49.5995 20.3809C48.196 19.9779 45.0972 19.8806 43.6937 20.2002ZM49.3911 22.5209C50.739 22.9656 51.9202 23.6465 53.0736 24.647C54.227 25.6614 54.4632 25.6336 55.825 24.4108C56.7561 23.5492 58.7293 22.5765 60.0911 22.2707C61.7309 21.8955 63.8987 22.0345 65.4829 22.5765C67.1921 23.174 68.1092 23.7576 69.4711 25.1195C70.7356 26.3701 71.5694 27.7458 72.028 29.2605L72.2364 29.9831L71.3054 30.9281C69.61 32.6234 68.6234 34.5411 68.3594 36.5977C68.2482 37.4593 68.2621 37.7233 68.4288 38.0568C68.679 38.5293 69.1931 38.696 69.749 38.4598C70.2076 38.2652 70.2492 38.1819 70.4299 36.9312C70.68 35.1386 71.5138 33.6239 72.9868 32.2621C73.9734 31.3449 75.6826 30.4695 77.6003 29.8997C78.6981 29.5662 79.0872 29.5107 80.8659 29.5107C82.6307 29.4968 82.992 29.5384 83.7841 29.8164C87.6195 31.1782 89.8428 35.486 88.5783 39.0851C87.4666 42.2118 83.4089 45.5885 78.9482 47.0754C75.4186 48.2427 70.0964 47.937 64.5518 46.2277C62.4118 45.5607 59.6187 44.449 56.5059 42.9899C52.7818 41.2529 51.1698 40.8777 48.7519 41.2251C46.459 41.5586 44.4996 42.3924 40.6365 44.6575C36.4121 47.131 35.2726 47.5618 33.1326 47.534C29.2416 47.4784 25.9066 45.8942 24.1695 43.2957C22.905 41.3919 22.6965 39.0295 23.6276 37.0563C24.7115 34.7912 27.0044 32.9986 29.9642 32.1231C30.9648 31.8313 31.5623 31.7479 33.3132 31.6923C34.6611 31.6368 35.8145 31.6785 36.4815 31.7896C39.1774 32.2204 41.776 33.5822 43.7631 35.5972C44.3746 36.2225 44.6108 36.3754 44.9721 36.3754C45.5418 36.3754 45.9865 35.9585 45.9865 35.4165C45.9865 34.2909 42.8738 31.734 40.2057 30.664C39.0801 30.2194 37.2458 29.7052 36.7317 29.7052C36.3287 29.7052 36.3843 29.4551 37.1625 27.8292C38.2325 25.6058 39.7471 24.1189 42.0261 23.0072C43.5964 22.2568 44.5969 22.0623 46.6119 22.1179C47.9459 22.1596 48.5017 22.2291 49.3911 22.5209ZM51.7951 43.4068C52.5038 43.5458 53.6016 43.9766 55.0885 44.6714C59.4241 46.728 61.9949 47.7146 65.2883 48.604C68.4427 49.4656 70.2631 49.7296 73.4037 49.813L76.1412 49.8963V53.287C76.1412 56.4692 76.1273 56.6916 75.905 56.5943C74.0846 55.8856 71.3609 55.288 68.0814 54.8712C63.9543 54.3431 61.6475 54.2319 55.3664 54.2319C49.0854 54.2319 46.7786 54.3431 42.6514 54.8712C39.3858 55.288 36.3704 55.9412 34.8418 56.5943C34.6056 56.6916 34.5917 56.4692 34.5917 53.1619V49.6323L35.6061 49.3961C37.0235 49.0487 38.5938 48.3122 41.4008 46.6724C46.9176 43.4346 48.8908 42.8093 51.7951 43.4068ZM61.6197 56.3858C67.873 56.761 72.8339 57.5809 75.1407 58.6231C76.0162 59.0122 76.0439 59.04 75.766 59.2346C75.3074 59.5542 74.0985 59.985 72.6811 60.3463C65.3022 62.1805 50.4889 62.4724 41.1229 60.9577C38.288 60.513 35.6478 59.7765 34.9252 59.2485C34.675 59.0539 34.7167 59.0261 35.5644 58.6231C37.8017 57.5809 43.777 56.6221 49.7385 56.3442C52.0453 56.233 59.4936 56.2608 61.6197 56.3858Z" fill="#F0831C"/>
<path d="M76.3497 63.2783C72.153 64.2233 68.4705 65.0987 68.1787 65.2377C67.1921 65.6685 66.4139 66.8496 66.4139 67.878V68.406L60.5497 69.9763L54.6716 71.5465L42.4708 68.2809C35.7589 66.4744 30.0754 65.0014 29.8531 65.0014C28.6302 65.0014 27.7825 66.4328 28.3523 67.5444C28.4357 67.7112 30.0059 69.351 31.8402 71.1991L35.1753 74.5481L33.3132 74.9372C32.2988 75.1457 31.1454 75.4514 30.7424 75.5903C29.7141 75.9655 28.7275 76.9105 28.1716 78.0361C27.7548 78.8698 27.7131 79.0783 27.727 80.1483C27.727 81.121 27.7964 81.4684 28.0883 82.1215C29.2416 84.6228 31.6874 85.5678 34.675 84.6645C35.356 84.4561 39.5665 83.136 44.0272 81.7324L52.1286 79.1755L56.2975 80.2872C61.05 81.5657 61.0361 81.5657 61.4113 80.4123L61.6197 79.787L69.5405 81.9131C76.433 83.7752 77.5725 84.0392 78.309 83.9975C80.4907 83.8863 81.7553 81.7185 80.8242 79.6758C80.2406 78.3974 80.1433 78.3696 72.2642 76.2574C68.4288 75.229 65.3439 74.3536 65.3995 74.298C65.469 74.2563 66.0109 74.0757 66.6223 73.9089L67.734 73.6171L67.9425 73.9228C68.2621 74.4231 68.8596 74.9511 69.3877 75.2012C70.4438 75.7015 70.9302 75.5903 79.0455 73.0473C83.2144 71.7272 86.7718 70.5738 86.9385 70.4626C87.4666 70.1152 87.8279 69.3787 87.8418 68.6422C87.8418 67.5028 87.2304 66.6829 86.1465 66.3911C85.5628 66.2382 85.3683 66.2799 77.6976 68.3365C74.3903 69.2259 73.5009 69.3926 73.8067 69.0869C73.8484 69.0452 76.433 68.3365 79.5458 67.5028C82.6446 66.669 85.3961 65.863 85.6601 65.6963C86.5634 65.1404 86.8691 63.5562 86.2437 62.6252C85.8963 62.0971 84.8819 61.5135 84.34 61.5413C84.1454 61.5552 80.5602 62.3334 76.3497 63.2783ZM84.465 63.9453C84.4233 63.987 81.8109 64.7096 78.6564 65.5573C75.502 66.405 72.7645 67.197 72.5838 67.3082C72.0141 67.6834 71.6944 68.3643 71.6944 69.1842C71.6944 70.5043 72.5421 71.3937 73.7928 71.3937C74.1819 71.3937 76.6554 70.7962 79.8932 69.9346C82.8809 69.1286 85.4239 68.4755 85.535 68.4755C85.9519 68.4755 85.7018 68.7395 85.0765 68.948C79.6986 70.6711 70.9441 73.3392 70.6244 73.3392C70.3882 73.3392 70.0964 73.228 69.9574 73.0612C69.6934 72.7694 68.5122 68.6839 68.4983 68.0447C68.4983 67.2109 68.6234 67.1693 76.7249 65.3489C83.2283 63.9037 84.7985 63.6118 84.465 63.9453ZM45.9726 71.3937C53.949 73.5198 60.4941 75.2985 60.5358 75.3263C60.5636 75.368 60.383 76.2018 60.1189 77.1884C59.7159 78.7309 59.6187 78.9671 59.3824 78.9254C59.2435 78.8976 54.0324 77.508 47.8069 75.8405L36.4815 72.7972L33.7718 70.0736C32.271 68.5728 31.1454 67.3916 31.2566 67.4333C31.3678 67.475 37.9962 69.2537 45.9726 71.3937ZM67.0531 71.0463C67.0948 71.3242 67.1226 71.5604 67.0948 71.5882C67.067 71.616 65.6913 72.0051 64.0516 72.4359L61.0639 73.228L60.0634 72.9917C59.5075 72.8528 59.0489 72.6999 59.0489 72.6443C59.0489 72.5471 66.2055 70.5877 66.6501 70.5738C66.9003 70.5599 66.9697 70.6572 67.0531 71.0463ZM43.8604 76.9522C46.1394 77.5636 48.071 78.0916 48.1404 78.1194C48.2933 78.1611 45.6252 79.0366 38.0796 81.385C34.9391 82.3717 32.9519 82.9275 32.5489 82.9275C31.3817 82.9275 30.27 82.066 29.9226 80.8848C29.6168 79.8287 29.8948 78.8837 30.7424 78.1055C31.4094 77.4802 31.1315 77.5636 36.4677 76.4102C37.8434 76.1045 39.1357 75.8544 39.3442 75.8544C39.5526 75.8405 41.5814 76.3407 43.8604 76.9522ZM72.3893 78.4668C78.7954 80.19 79.0594 80.2872 79.0594 80.982C79.0594 81.3572 78.5175 81.9548 78.184 81.9548C78.0172 81.9548 74.3347 81.0098 70.013 79.8565L62.1339 77.7442L62.3979 76.8271C62.5508 76.3268 62.6619 75.8961 62.6619 75.8961C62.6619 75.8683 63.6903 76.1323 72.3893 78.4668Z" fill="#F0831C"/>
</svg>
