<svg width="110" height="111" viewBox="0 0 110 111" fill="none" xmlns="http://www.w3.org/2000/svg">
<rect width="110" height="111" rx="55" fill="white"/>
<path d="M37.8251 21.7713C35.4412 23.0015 32.8947 25.0146 29.7523 28.3139C25.6347 32.5638 20 39.8334 20 40.9518C20 41.511 26.8266 40.6722 31.161 39.4979C33.3282 38.9387 36.4706 37.7643 38.2585 36.8137C41.3468 35.248 45.4644 31.2776 45.4644 29.9356C45.4644 29.4323 45.6269 29.4323 46.1146 29.9356C46.4938 30.327 46.8189 33.4585 46.9814 38.3795C47.2523 47.2148 46.548 51.5765 43.8932 56.8889L42.3762 59.9645L38.096 60.2441C28.7771 60.9151 23.2508 66.619 23.2508 75.6221C23.2508 84.737 29.3189 91 38.1502 91C46.4396 90.9441 52.3452 85.408 52.9412 77.076C53.3746 70.8689 50.8824 65.5006 46.2771 62.7046L43.8932 61.2507L45.4644 57.9514C47.5232 53.8133 48.5526 49.843 48.9861 44.1951C49.3653 39.5538 48.6068 31.1099 47.3607 26.2449C46.9272 24.5114 46.8731 23.337 47.1981 23.337C48.1734 23.337 52.2368 26.6363 55.2709 29.8797C60.3638 35.3598 63.7229 41.3432 66.5944 50.0108L68.1656 54.8758L65.9985 56.7771C64.8607 57.7836 63.2353 59.8527 62.3684 61.2507C61.0681 63.5434 60.9056 64.4381 60.9056 68.6321C60.9056 74.0004 61.8808 76.4609 65.0774 79.6483C69.0867 83.6745 76.5635 85.0166 81.548 82.6679C86.8034 80.2075 90 74.8951 90 68.6321C90 64.1026 88.7539 60.7474 85.9907 57.8955C82.8483 54.6521 80.5728 53.8133 74.7755 53.7574L69.7368 53.7015L68.274 49.0042C64.4814 36.9815 57.4923 27.1396 49.2028 22.0509C44.8142 19.4227 42.5387 19.3108 37.8251 21.7713ZM44.7059 23.6166C45.4644 27.8665 42.3762 32.5638 37.0666 35.248C33.4907 37.0933 23.7926 39.6097 23.7926 38.6591C23.7926 37.8203 31.2152 29.2086 34.0325 26.86C37.1207 24.2318 41.7802 21.6594 43.4056 21.6594C44.0557 21.6594 44.435 22.2746 44.7059 23.6166ZM79.2724 55.8824C82.3065 56.833 86.9118 61.4743 87.6703 64.4381C89.0248 69.6386 88.0495 73.8326 84.6362 77.6352C80.7353 81.941 75.3173 83.1712 70.387 80.8785C62.3142 77.1319 59.9845 67.6255 65.2941 60.4119C68.5449 56.0501 73.9628 54.2607 79.2724 55.8824ZM41.4009 62.5368C48.065 64.4381 52.3994 71.6517 50.9365 78.418C48.7152 88.6514 36.9582 92.6776 29.3731 85.7995C26.3932 83.1153 25.2012 80.1516 25.1471 75.6221C25.1471 72.3228 25.3638 71.2603 26.6641 69.0794C28.452 65.9479 30.9985 63.7671 34.195 62.7605C37.1207 61.8099 38.6378 61.7539 41.4009 62.5368Z" fill="#34373A"/>
<path d="M84.7988 67.6255C83.9862 72.9378 80.4103 76.5167 75.1549 77.2996C73.367 77.5792 72.5543 77.9706 72.5543 78.5857C72.5543 79.2568 73.0961 79.3686 75.48 79.089C81.9273 78.418 85.7199 74.6154 86.4784 68.0169C86.7493 65.7801 86.641 65.2768 85.9908 65.2768C85.449 65.2768 85.0156 66.0597 84.7988 67.6255Z" fill="#34373A"/>
<path d="M47.3606 75.4541C47.2522 75.8456 46.873 77.1317 46.5479 78.3061C45.1392 83.0033 40.4256 85.8552 35.4952 85.1283C34.0324 84.9046 33.003 84.9605 32.7863 85.3519C32.1361 86.4144 34.7367 87.1973 38.2042 86.9736C42.4844 86.694 45.6268 84.625 47.4148 80.9343C49.1485 77.3554 49.5819 74.7831 48.4442 74.7831C48.0107 74.7831 47.5231 75.1186 47.3606 75.4541Z" fill="#34373A"/>
</svg>
