<svg width="88" height="68" viewBox="0 0 88 68" fill="none" xmlns="http://www.w3.org/2000/svg">
<path d="M0 0.577248C0 0.889259 3.41589 8.93918 7.60518 18.4868C11.7945 28.0967 15.6615 36.8331 16.1127 37.9563L16.9505 40.0156L22.6866 39.8284L28.4872 39.6412L37.1236 20.1092C41.893 9.3136 45.76 0.390041 45.76 0.265236C45.76 0.14043 43.182 0.015625 40.0883 0.015625H34.4167L29.0028 12.4961C26.0381 19.3604 23.3956 24.9766 23.1378 24.9766C22.9445 24.9766 21.8488 22.9173 20.8176 20.4212C19.7219 17.9875 17.3372 12.3713 15.4682 7.94074L12.0523 0.015625H6.05837C2.70693 0.015625 0 0.265236 0 0.577248Z" fill="white"/>
<path d="M77.4685 1.01562C76.8264 2.70312 64.6253 22.5156 64.24 22.5156C64.0473 22.5156 60.9007 17.5781 57.1762 11.5781C53.4517 5.57812 50.3051 0.640625 50.1124 0.640625C49.9198 0.640625 47.6722 5.39062 45.1035 11.2656L40.48 21.8281V30.9531V40.0156H45.9384H51.3967L51.5252 30.0781L51.7178 20.1406L56.5983 28.0781C61.2218 35.5156 61.6071 35.9531 63.7263 36.1406C66.4233 36.3906 66.616 36.1406 72.3312 26.8906L76.7621 19.7031L76.9548 29.8281L77.0832 40.0156H82.5416H88V20.0156V0.015625H82.9269C78.8171 0.015625 77.7896 0.203125 77.4685 1.01562Z" fill="white"/>
<path d="M3.11364 55.3793L5.92614 64.2202H6.03409L8.85227 55.3793H11.5795L7.56818 67.0156H4.39773L0.380682 55.3793H3.11364ZM16.0803 55.3793V67.0156H13.6201V55.3793H16.0803ZM18.3013 57.4077V55.3793H27.8581V57.4077H24.2956V67.0156H21.8638V57.4077H18.3013ZM30.6558 67.0156H28.0194L32.0365 55.3793H35.2069L39.2183 67.0156H36.5819L33.6672 58.0384H33.5763L30.6558 67.0156ZM30.491 62.4418H36.7183V64.3622H30.491V62.4418ZM41.2589 55.3793H44.293L47.4975 63.1974H47.6339L50.8384 55.3793H53.8725V67.0156H51.4861V59.4418H51.3895L48.3782 66.9588H46.7532L43.7418 59.4134H43.6452V67.0156H41.2589V55.3793ZM56.5395 67.0156V55.3793H64.3804V57.4077H58.9997V60.1804H63.977V62.2088H58.9997V64.9872H64.4031V67.0156H56.5395ZM68.982 67.0156H66.3457L70.3627 55.3793H73.5332L77.5445 67.0156H74.9082L71.9934 58.0384H71.9025L68.982 67.0156ZM68.8173 62.4418H75.0445V64.3622H68.8173V62.4418ZM79.5851 67.0156V55.3793H82.0453V64.9872H87.034V67.0156H79.5851Z" fill="white"/>
</svg>
