<svg width="88" height="40" viewBox="0 0 88 40" fill="none" xmlns="http://www.w3.org/2000/svg">
<path d="M0 0.561623C0 0.873634 3.41589 8.92356 7.60518 18.4711C11.7945 28.0811 15.6615 36.8175 16.1127 37.9407L16.9505 40L22.6866 39.8128L28.4872 39.6256L37.1236 20.0936C41.893 9.29797 45.76 0.374416 45.76 0.249611C45.76 0.124805 43.182 0 40.0883 0H34.4167L29.0028 12.4805C26.0381 19.3448 23.3956 24.961 23.1378 24.961C22.9445 24.961 21.8488 22.9017 20.8176 20.4056C19.7219 17.9719 17.3372 12.3557 15.4682 7.92512L12.0523 0H6.05837C2.70693 0 0 0.249611 0 0.561623Z" fill="white"/>
<path d="M77.4685 1C76.8264 2.6875 64.6253 22.5 64.24 22.5C64.0473 22.5 60.9008 17.5625 57.1762 11.5625C53.4517 5.5625 50.3051 0.625 50.1124 0.625C49.9198 0.625 47.6722 5.375 45.1036 11.25L40.48 21.8125V30.9375V40H45.9384H51.3968L51.5252 30.0625L51.7178 20.125L56.5983 28.0625C61.2218 35.5 61.6071 35.9375 63.7263 36.125C66.4233 36.375 66.616 36.125 72.3312 26.875L76.7622 19.6875L76.9548 29.8125L77.0832 40H82.5416H88V20V0H82.9269C78.8171 0 77.7896 0.1875 77.4685 1Z" fill="white"/>
</svg>
