<svg width="40" height="33" viewBox="0 0 40 33" fill="none" xmlns="http://www.w3.org/2000/svg">
<path d="M3.3335 16.6986C3.3335 10.4132 3.3335 7.27048 5.28612 5.31786C7.23874 3.36523 10.3814 3.36523 16.6668 3.36523H23.3335C29.6189 3.36523 32.7616 3.36523 34.7142 5.31786C36.6668 7.27048 36.6668 10.4132 36.6668 16.6986C36.6668 22.984 36.6668 26.1267 34.7142 28.0793C32.7616 30.0319 29.6189 30.0319 23.3335 30.0319H16.6668C10.3814 30.0319 7.23874 30.0319 5.28612 28.0793C3.3335 26.1267 3.3335 22.984 3.3335 16.6986Z" stroke="white" stroke-width="2"/>
<path d="M10 10.0293L13.5982 13.0278C16.6592 15.5786 18.1898 16.8541 20 16.8541C21.8102 16.8541 23.3408 15.5786 26.4018 13.0278L30 10.0293" stroke="white" stroke-width="2" stroke-linecap="round"/>
</svg>
