<svg width="40" height="41" viewBox="0 0 40 41" fill="none" xmlns="http://www.w3.org/2000/svg">
<path d="M22.5 4.0293C22.5 4.0293 26.3891 4.38285 31.3388 9.3326C36.2886 14.2823 36.6421 18.1714 36.6421 18.1714" stroke="white" stroke-width="2" stroke-linecap="round"/>
<path d="M23.6782 9.92383C23.6782 9.92383 25.3281 10.3952 27.803 12.8701C30.2779 15.345 30.7493 16.9949 30.7493 16.9949" stroke="white" stroke-width="2" stroke-linecap="round"/>
<path d="M25.1679 25.7426L24.4428 25.0539L25.1679 25.7426ZM25.9269 24.9434L26.652 25.6321L25.9269 24.9434ZM29.9547 24.3845L29.4558 25.2511V25.2511L29.9547 24.3845ZM33.1389 26.2172L32.64 27.0839L33.1389 26.2172ZM34.0361 31.9613L34.7612 32.65L34.0361 31.9613ZM31.6685 34.4539L30.9435 33.7652L31.6685 34.4539ZM29.4605 35.6358L29.5587 36.6309L29.4605 35.6358ZM13.0256 28.1559L13.7507 27.4672L13.0256 28.1559ZM5.00481 12.3072L4.00625 12.3608L4.00625 12.3608L5.00481 12.3072ZM15.7959 14.8691L16.5209 15.5578L15.7959 14.8691ZM16.0571 10.1858L16.8736 9.60845V9.60845L16.0571 10.1858ZM13.9554 7.21329L13.1389 7.7906L13.1389 7.7906L13.9554 7.21329ZM8.76908 6.71167L9.49414 7.40036L9.49414 7.40036L8.76908 6.71167ZM6.15308 9.46583L5.42802 8.77714H5.42802L6.15308 9.46583ZM18.4385 22.4571L19.1636 21.7684L18.4385 22.4571ZM25.8929 26.4313L26.652 25.6321L25.2019 24.2548L24.4428 25.0539L25.8929 26.4313ZM29.4558 25.2511L32.64 27.0839L33.6377 25.3505L30.4536 23.5178L29.4558 25.2511ZM33.3111 31.2726L30.9435 33.7652L32.3936 35.1426L34.7612 32.65L33.3111 31.2726ZM29.3622 34.6406C26.9057 34.8831 20.5852 34.6627 13.7507 27.4672L12.3005 28.8446C19.622 36.5527 26.5837 36.9246 29.5587 36.6309L29.3622 34.6406ZM13.7507 27.4672C7.24761 20.6207 6.14148 14.8265 6.00338 12.2536L4.00625 12.3608C4.16864 15.3862 5.45477 21.6373 12.3005 28.8446L13.7507 27.4672ZM16.0429 16.0611L16.5209 15.5578L15.0708 14.1804L14.5928 14.6837L16.0429 16.0611ZM16.8736 9.60845L14.7719 6.63598L13.1389 7.7906L15.2405 10.7631L16.8736 9.60845ZM8.04403 6.02298L5.42802 8.77714L6.87814 10.1545L9.49414 7.40036L8.04403 6.02298ZM15.3178 15.3724C14.5928 14.6837 14.5919 14.6847 14.5909 14.6857C14.5906 14.686 14.5897 14.687 14.589 14.6877C14.5878 14.689 14.5864 14.6904 14.5851 14.6919C14.5824 14.6947 14.5797 14.6978 14.5768 14.7009C14.571 14.7073 14.5648 14.7142 14.5583 14.7217C14.5451 14.7368 14.5305 14.7544 14.5146 14.7744C14.4829 14.8145 14.4464 14.8646 14.4076 14.9252C14.3299 15.0466 14.244 15.209 14.1707 15.415C14.022 15.8329 13.9367 16.3976 14.0419 17.1153C14.2491 18.5294 15.1845 20.4833 17.7135 23.1458L19.1636 21.7684C16.7676 19.2458 16.1426 17.6573 16.0207 16.8254C15.9614 16.42 16.0193 16.1858 16.055 16.0855C16.0739 16.0323 16.0905 16.0058 16.0922 16.0031C16.0932 16.0016 16.0906 16.0059 16.0829 16.0156C16.0791 16.0204 16.074 16.0267 16.0674 16.0342C16.0641 16.038 16.0604 16.0422 16.0563 16.0466C16.0543 16.0489 16.0522 16.0512 16.0499 16.0536C16.0488 16.0548 16.0477 16.056 16.0465 16.0573C16.0459 16.0579 16.045 16.0589 16.0447 16.0592C16.0438 16.0601 16.0429 16.0611 15.3178 15.3724ZM17.7135 23.1458C20.2365 25.802 22.1064 26.8067 23.4898 27.0313C24.1968 27.1462 24.7587 27.0532 25.1759 26.8887C25.3804 26.808 25.5406 26.7139 25.6592 26.6298C25.7184 26.5878 25.7671 26.5484 25.8058 26.5144C25.8252 26.4974 25.8421 26.4818 25.8566 26.4678C25.8638 26.4609 25.8705 26.4543 25.8765 26.4482C25.8795 26.4451 25.8824 26.4422 25.8852 26.4394C25.8865 26.438 25.8878 26.4366 25.8891 26.4352C25.8898 26.4346 25.8907 26.4336 25.8911 26.4332C25.892 26.4323 25.8929 26.4313 25.1679 25.7426C24.4428 25.0539 24.4437 25.053 24.4446 25.052C24.4449 25.0517 24.4458 25.0508 24.4464 25.0501C24.4476 25.0489 24.4488 25.0477 24.4499 25.0465C24.4522 25.0442 24.4544 25.0419 24.4566 25.0397C24.4608 25.0354 24.4648 25.0315 24.4685 25.028C24.4758 25.0209 24.482 25.0153 24.4869 25.0109C24.4968 25.0023 24.502 24.9986 24.5022 24.9984C24.5029 24.9979 24.4837 25.0117 24.4421 25.0281C24.3671 25.0577 24.17 25.1156 23.8104 25.0572C23.0603 24.9354 21.5656 24.2973 19.1636 21.7684L17.7135 23.1458ZM14.772 6.63598C13.1662 4.36483 9.97044 3.99483 8.04402 6.02298L9.49414 7.40036C10.4828 6.35953 12.2014 6.4647 13.1389 7.7906L14.772 6.63598ZM6.00338 12.2536C5.96305 11.5023 6.29175 10.7719 6.87814 10.1545L5.42802 8.77714C4.56902 9.68151 3.92912 10.9237 4.00625 12.3608L6.00338 12.2536ZM30.9435 33.7652C30.451 34.2837 29.9124 34.5863 29.3622 34.6406L29.5587 36.6309C30.7266 36.5156 31.6821 35.8917 32.3936 35.1426L30.9435 33.7652ZM16.5209 15.5578C18.0465 13.9516 18.1601 11.428 16.8736 9.60845L15.2405 10.7631C16.0089 11.8498 15.9004 13.3071 15.0708 14.1804L16.5209 15.5578ZM32.64 27.0839C34.1435 27.9493 34.4477 30.0759 33.3111 31.2726L34.7612 32.65C36.8208 30.4816 36.2239 26.8391 33.6377 25.3505L32.64 27.0839ZM26.652 25.6321C27.3758 24.8701 28.5037 24.7031 29.4558 25.2511L30.4536 23.5178C28.7204 22.5202 26.5768 22.8072 25.2019 24.2548L26.652 25.6321Z" fill="white"/>
</svg>
