<svg width="30" height="31" viewBox="0 0 30 31" fill="none" xmlns="http://www.w3.org/2000/svg">
<path d="M16.8751 3.00012C16.8751 3.00012 19.7919 3.26529 23.5042 6.9776C27.2165 10.6899 27.4817 13.6067 27.4817 13.6067" stroke="white" stroke-width="2" stroke-linecap="round"/>
<path d="M17.7588 7.41956C17.7588 7.41956 18.9962 7.77311 20.8524 9.62926C22.7085 11.4854 23.0621 12.7229 23.0621 12.7229" stroke="white" stroke-width="2" stroke-linecap="round"/>
<path d="M18.8759 19.284L18.1508 18.5953L18.8759 19.284ZM19.4452 18.6846L20.1703 19.3733L19.4452 18.6846ZM22.466 18.2654L21.9672 19.1321L22.466 18.2654ZM24.8542 19.64L24.3553 20.5067L24.8542 19.64ZM25.5271 23.948L26.2521 24.6367L25.5271 23.948ZM23.7514 25.8175L23.0263 25.1288L23.7514 25.8175ZM22.0953 26.7039L22.1936 27.699L22.0953 26.7039ZM9.7692 21.094L10.4943 20.4053L9.7692 21.094ZM3.75361 9.20742L2.75505 9.26102L2.75505 9.26102L3.75361 9.20742ZM11.8469 11.1289L12.572 11.8176L11.8469 11.1289ZM12.0428 7.61638L12.8593 7.03906V7.03906L12.0428 7.61638ZM10.4666 5.38702L9.65004 5.96433L9.65004 5.96433L10.4666 5.38702ZM6.57681 5.0108L7.30187 5.69949L7.30187 5.69949L6.57681 5.0108ZM4.61481 7.07642L3.88975 6.38773L3.88975 6.38773L4.61481 7.07642ZM13.8289 16.8199L14.554 16.1312L13.8289 16.8199ZM19.601 19.9727L20.1703 19.3733L18.7201 17.9959L18.1508 18.5953L19.601 19.9727ZM21.9672 19.1321L24.3553 20.5067L25.353 18.7733L22.9649 17.3987L21.9672 19.1321ZM24.802 23.2594L23.0263 25.1288L24.4765 26.5062L26.2521 24.6367L24.802 23.2594ZM21.9971 25.7087C20.2196 25.8842 15.5593 25.7378 10.4943 20.4053L9.04414 21.7827C14.5961 27.6278 19.8975 27.9257 22.1936 27.699L21.9971 25.7087ZM10.4943 20.4053C5.65981 15.3155 4.85271 11.027 4.75217 9.15382L2.75505 9.26102C2.87988 11.5867 3.86698 16.3321 9.04414 21.7827L10.4943 20.4053ZM12.2134 12.195L12.572 11.8176L11.1218 10.4402L10.7633 10.8177L12.2134 12.195ZM12.8593 7.03906L11.2831 4.80971L9.65004 5.96433L11.2263 8.19369L12.8593 7.03906ZM5.85175 4.32211L3.88975 6.38773L5.33987 7.76511L7.30187 5.69949L5.85175 4.32211ZM11.4884 11.5063C10.7633 10.8177 10.7624 10.8186 10.7615 10.8196C10.7612 10.8199 10.7602 10.8209 10.7596 10.8216C10.7583 10.823 10.757 10.8243 10.7557 10.8257C10.7531 10.8285 10.7504 10.8315 10.7476 10.8345C10.7421 10.8406 10.7362 10.8472 10.7301 10.8543C10.7178 10.8685 10.7043 10.8846 10.6899 10.9027C10.6612 10.939 10.6289 10.9834 10.5951 11.0362C10.5274 11.1421 10.4543 11.2809 10.3925 11.4545C10.2669 11.8076 10.1995 12.2724 10.284 12.8498C10.4501 13.9831 11.1905 15.4942 13.1038 17.5086L14.554 16.1312C12.7735 14.2567 12.3437 13.1111 12.2629 12.5598C12.2241 12.2949 12.2641 12.1605 12.2768 12.125C12.2842 12.1042 12.288 12.1013 12.2798 12.1141C12.2758 12.1204 12.2689 12.1304 12.2582 12.1439C12.2529 12.1506 12.2466 12.1583 12.2392 12.1668C12.2354 12.1711 12.2315 12.1755 12.2272 12.1803C12.225 12.1826 12.2228 12.185 12.2205 12.1875C12.2194 12.1887 12.2182 12.19 12.217 12.1912C12.2165 12.1918 12.2156 12.1928 12.2153 12.1931C12.2144 12.1941 12.2134 12.195 11.4884 11.5063ZM13.1038 17.5086C15.0112 19.5166 16.4606 20.316 17.5773 20.4973C18.151 20.5905 18.618 20.5164 18.9736 20.3761C19.1474 20.3076 19.2852 20.227 19.3891 20.1533C19.4409 20.1165 19.4841 20.0816 19.5192 20.0508C19.5368 20.0354 19.5523 20.021 19.5659 20.0079C19.5727 20.0014 19.579 19.9951 19.5849 19.9892C19.5878 19.9863 19.5906 19.9835 19.5933 19.9807C19.5946 19.9793 19.5959 19.978 19.5972 19.9766C19.5978 19.976 19.5988 19.975 19.5991 19.9746C19.6 19.9737 19.601 19.9727 18.8759 19.284C18.1508 18.5953 18.1517 18.5944 18.1527 18.5934C18.153 18.5931 18.1539 18.5921 18.1545 18.5915C18.1557 18.5903 18.1569 18.589 18.158 18.5878C18.1604 18.5854 18.1627 18.5831 18.1649 18.5808C18.1694 18.5763 18.1737 18.572 18.1779 18.568C18.1861 18.5601 18.1936 18.5532 18.2004 18.5473C18.2138 18.5355 18.2244 18.5273 18.232 18.522C18.2474 18.511 18.2507 18.5113 18.2398 18.5156C18.2264 18.5209 18.1242 18.5599 17.8979 18.5232C17.4145 18.4447 16.3404 18.0119 14.554 16.1312L13.1038 17.5086ZM11.2831 4.80971C9.99522 2.98819 7.41379 2.67759 5.85175 4.32211L7.30187 5.69949C7.92611 5.04229 9.03049 5.08806 9.65004 5.96433L11.2831 4.80971ZM4.75217 9.15382C4.72653 8.67613 4.93415 8.19225 5.33987 7.76511L3.88975 6.38773C3.21142 7.10189 2.6926 8.0975 2.75505 9.26102L4.75217 9.15382ZM23.0263 25.1288C22.6844 25.4888 22.3325 25.6756 21.9971 25.7087L22.1936 27.699C23.1467 27.605 23.9154 27.0969 24.4765 26.5062L23.0263 25.1288ZM12.572 11.8176C13.8032 10.5213 13.8889 8.4953 12.8593 7.03906L11.2263 8.19369C11.7378 8.91712 11.657 9.87677 11.1218 10.4402L12.572 11.8176ZM24.3553 20.5067C25.3475 21.0778 25.5392 22.4833 24.802 23.2594L26.2521 24.6367C27.9122 22.889 27.428 19.9676 25.353 18.7733L24.3553 20.5067ZM20.1703 19.3733C20.6317 18.8875 21.3507 18.7773 21.9672 19.1321L22.9649 17.3987C21.5674 16.5943 19.8327 16.8246 18.7201 17.9959L20.1703 19.3733Z" fill="white"/>
</svg>
