<svg width="40" height="41" viewBox="0 0 40 41" fill="none" xmlns="http://www.w3.org/2000/svg">
<g clip-path="url(#clip0_168_2265)">
<path d="M20 0.697266C8.955 0.697266 0 9.65227 0 20.6973C0 31.7423 8.955 40.6973 20 40.6973C31.045 40.6973 40 31.7423 40 20.6973C40 9.65227 31.045 0.697266 20 0.697266ZM29.8233 14.3989L26.54 29.8656C26.2983 30.9623 25.645 31.2289 24.7333 30.7123L19.7333 27.0289L17.3233 29.3523C17.2052 29.505 17.0536 29.6288 16.8803 29.714C16.707 29.7992 16.5165 29.8436 16.3233 29.8439H16.315L16.67 24.7539L25.9367 16.3839C26.3367 16.0289 25.8467 15.8273 25.315 16.1823L13.8667 23.3923L8.93333 21.8523C7.86667 21.5139 7.83667 20.7856 9.15833 20.2623L28.435 12.8323C29.3317 12.5056 30.1117 13.0456 29.8217 14.4006L29.8233 14.3989Z" fill="white"/>
</g>
<defs>
<clipPath id="clip0_168_2265">
<rect width="40" height="40" fill="white" transform="translate(0 0.697266)"/>
</clipPath>
</defs>
</svg>
