<svg width="40" height="41" viewBox="0 0 40 41" fill="none" xmlns="http://www.w3.org/2000/svg">
<path d="M20 1.49707C9.39605 1.49707 0.800049 10.0931 0.800049 20.6971C0.800049 31.3011 9.39605 39.8971 20 39.8971C30.604 39.8971 39.2001 31.3011 39.2001 20.6971C39.2001 10.0931 30.604 1.49707 20 1.49707ZM27.3841 23.1591C27.3841 23.1591 29.0821 24.8351 29.5 25.6131C29.512 25.6304 29.5194 25.6437 29.522 25.6531C29.6914 25.9371 29.7334 26.1617 29.6481 26.3271C29.5081 26.6031 29.028 26.7391 28.864 26.7511H25.864C25.656 26.7511 25.22 26.6971 24.692 26.3331C24.286 26.0491 23.886 25.5831 23.496 25.1291C22.914 24.4531 22.41 23.8691 21.9021 23.8691C21.8375 23.8688 21.7734 23.8789 21.712 23.8991C21.328 24.0231 20.8361 24.5711 20.8361 26.0311C20.8361 26.4871 20.476 26.7491 20.222 26.7491H18.848C18.38 26.7491 15.942 26.5851 13.782 24.3071C11.138 21.5171 8.75805 15.9211 8.73805 15.8691C8.58805 15.5071 8.89805 15.3131 9.23605 15.3131H12.266C12.67 15.3131 12.802 15.5591 12.894 15.7771C13.002 16.0311 13.398 17.0411 14.048 18.1771C15.102 20.0291 15.748 20.7811 16.266 20.7811C16.3632 20.7799 16.4586 20.7552 16.544 20.7091C17.22 20.3331 17.094 17.9231 17.064 17.4231C17.064 17.3291 17.062 16.3451 16.716 15.8731C16.468 15.5311 16.046 15.4011 15.79 15.3531C15.8937 15.2101 16.0302 15.0942 16.188 15.0151C16.652 14.7831 17.4881 14.7491 18.3181 14.7491H18.7801C19.68 14.7611 19.9121 14.8191 20.2381 14.9011C20.8981 15.0591 20.9121 15.4851 20.854 16.9431C20.8361 17.3571 20.8181 17.8251 20.8181 18.3771L20.812 18.7611C20.792 19.5031 20.768 20.3451 21.292 20.6911C21.3596 20.7356 21.4391 20.7586 21.5201 20.7571C21.702 20.7571 22.25 20.7571 23.734 18.2111C24.19 17.3907 24.5877 16.5393 24.924 15.6631C24.9541 15.6111 25.042 15.4511 25.146 15.3891C25.2236 15.3522 25.3082 15.3324 25.394 15.3311H28.956C29.344 15.3311 29.6101 15.3891 29.66 15.5391C29.748 15.7771 29.644 16.5031 28.018 18.7051L27.292 19.6631C25.8181 21.5951 25.8181 21.6931 27.3841 23.1591Z" fill="white"/>
</svg>
